<?xml version="1.0" encoding="UTF-8"?>
<svg id="_Слой_1" data-name="Слой 1" xmlns="http://www.w3.org/2000/svg" xmlns:xlink="http://www.w3.org/1999/xlink" viewBox="0 0 108.132270507812791 93.415828196579241">
  <defs>
    <style>
      .cls-1 {
        stroke: url(#_Безымянный_градиент_2-2);
      }

      .cls-1, .cls-2 {
        fill: #fff;
        stroke-linecap: round;
        stroke-linejoin: round;
        stroke-width: 3px;
      }

      .cls-2 {
        stroke: url(#_Безымянный_градиент_2);
      }
    </style>
    <linearGradient id="_Безымянный_градиент_2" data-name="Безымянный градиент 2" x1="37.767982943787501" y1="61.792732402633192" x2="108.132270507812791" y2="61.792732402633192" gradientTransform="translate(0 108.495828196580987) scale(1 -1)" gradientUnits="userSpaceOnUse">
      <stop offset="0" stop-color="#00dcfe"/>
      <stop offset=".078236451148987" stop-color="#00d7fa"/>
      <stop offset=".158312845230103" stop-color="#00cbef"/>
      <stop offset=".238976917266846" stop-color="#00b7dd"/>
      <stop offset=".261809730529785" stop-color="#00b0d7"/>
      <stop offset=".332372016906738" stop-color="#17a0d6"/>
      <stop offset=".48110237121582" stop-color="#5378d3"/>
      <stop offset=".662366256713867" stop-color="#a543d0"/>
      <stop offset=".670891418457031" stop-color="#a743d0"/>
      <stop offset=".854235763549805" stop-color="#db43d0"/>
      <stop offset=".944134063720703" stop-color="#ef43d0"/>
    </linearGradient>
    <linearGradient id="_Безымянный_градиент_2-2" data-name="Безымянный градиент 2" x1="0" y1="61.787914098291367" x2="51.807633606909803" y2="61.787914098291367" xlink:href="#_Безымянный_градиент_2"/>
  </defs>
  <path class="cls-2" d="m104.023912759468658,22.761257181564361c-1.742101349846052-4.754676529120843-4.138666660481249-8.614250908141912-7.199374942789291-11.588295671296692-3.06070828231168-2.964469402106261-6.708549586714071-5.110791951966348-10.953082313364575-6.429391346261582-4.244593032017292-1.318599394295234-8.874145353940548-1.973082200507633-13.879008107553091-1.973082200507633h-22.541421329144214c-3.051059424098639,0-5.515015978795418.933582154705618-7.382250958551595,2.800804884937861-1.867234979759814,1.867223201367779-2.800792164278391,4.331181640603972-2.800792164278391,7.391876731117009v17.353629792569336c5.986634076500195,8.402472604498143,11.039680815803877,15.900208334755916,11.039680815803877,17.189962919721438,0,1.318599394295234-5.043397881094279,8.51796679891504-11.039680815803877,16.573964358335616v16.37187354602429c0,3.051059424102277.933587337200152,5.515015978795418,2.800792164278391,7.382243420384839,1.867204827074602,1.867227441587602,4.331191534452955,2.800860007808296,7.382250958551595,2.800860007808296h22.541421329144214c5.004862753612542,0,9.634415075535799-.654479037126293,13.879008107553091-1.973078431421527,4.244532726650505-1.309025917789768,7.892374031052896-3.474614146845852,10.953082313364575-6.487198748834999,3.060708282308042-3.022158078492794,5.457273592943238-6.900999078980021,7.199374942789291-11.655677492644827,1.73245249163665-4.754678413662987,2.608357748344133-10.568062718097281,2.608357748344133-17.449854538703221v-12.733654716238561c0-6.958745233918307-.875905256707483-12.820304101325746-2.608357748344133-17.574982514989642Zm-18.53747685142298,30.308637231228204c0,2.974102241703804-.182876015765942,5.688318518054075-.567835305668268,8.152275072749035-.385019595269114,2.463956554693141-1.087607236378972,4.562168616030249-2.098204523164895,6.304262427705908-1.020246144998964,1.74209381167384-2.406214168844599,3.099175566252597-4.138726965844398,4.071290492756816-1.742101349846052.981756246543227-3.97499790308575,1.472626831646267-6.689221717606415,1.472626831646267h-4.437087753311062c-3.946171939187479,0-7.151251262468577-3.205094399621885-7.151251262468577-7.160892582507586V27.496666146947064c0-3.946164401015267,3.205079323281097-7.151255031551955,7.151251262468577-7.151255031551955h4.437087753311062c2.714223814520665,0,4.947120367760363.49087623872947,6.689221717606415,1.462994934318885,1.732512796999799.981752477458031,3.118510973527009,2.338830462951591,4.138726965844398,4.071292377299869,1.010597286785924,1.742095696218712,1.713184927895782,3.849939654880473,2.098204523164895,6.304262427705908.384959289902326,2.464016860058109.567835305668268,5.178172831044321.567835305668268,8.152275072749035v12.733658485323758Z"/>
  <path class="cls-1" d="m50.307633606909803,47.506762291844097c0,1.318599394295234-5.043397881094279,8.51796679891504-11.039680815803877,16.573964358335616-1.135730916699686,1.530376755667021-2.30999696087747,3.099228333447172-3.493821405219933,4.658453667527283-7.382296187577595,9.75960901081271-14.995531765878695,19.355556802405772-15.929119103075209,20.30840416517276-1.867219903419027,1.915336045569347-4.45631008802593,2.868243713699485-7.776889259352174,2.868243713699485-3.224361963359115,0-5.784535726019385-.952907668130138-7.699879309759126-2.868243713699485-1.905755030893488-1.905702263702551-2.868243713699485-4.437042524288699-2.868243713699485-7.574753218019396V11.683046891914273c0-3.05106036637244.962488682805997-5.515019276745079,2.868243713699485-7.382242006977322,1.915328507398954-1.867222730231333,4.475517346400011-2.800804884936952,7.699879309759126-2.800804884936952,3.320579171326244,0,5.909669355933147.933582154705618,7.776889259352174,2.800804884936952,1.077973454506719,1.087612418869867,11.155165587504598,14.408369062244674,19.422940508295142,26.015992602642655,5.986634076500195,8.402474489041197,11.039680815803877,15.900206450213773,11.039680815803877,17.189964804264491Z"/>
</svg>