<?xml version="1.0" encoding="UTF-8"?>
<svg id="_Слой_1" data-name="Слой 1" xmlns="http://www.w3.org/2000/svg" xmlns:xlink="http://www.w3.org/1999/xlink" viewBox="0 0 331.1248779296875 107.272654213118585">
  <defs>
    <style>
      .cls-1 {
        stroke: url(#_Безымянный_градиент_2-2);
      }

      .cls-1, .cls-2, .cls-3 {
        fill: #fff;
      }

      .cls-1, .cls-3 {
        stroke-linecap: round;
        stroke-linejoin: round;
        stroke-width: 3px;
      }

      .cls-2 {
        stroke-width: 0px;
      }

      .cls-3 {
        stroke: url(#_Безымянный_градиент_2);
      }
    </style>
    <linearGradient id="_Безымянный_градиент_2" data-name="Безымянный градиент 2" x1="259.94537353515625" y1="65.561980480364582" x2="331.1248779296875" y2="65.561980480364582" gradientTransform="translate(0 113.35265421312215) scale(1 -1)" gradientUnits="userSpaceOnUse">
      <stop offset="0" stop-color="#00dcfe"/>
      <stop offset=".078236451148987" stop-color="#00d7fa"/>
      <stop offset=".158312845230103" stop-color="#00cbef"/>
      <stop offset=".238976917266846" stop-color="#00b7dd"/>
      <stop offset=".261809730529785" stop-color="#00b0d7"/>
      <stop offset=".332372016906738" stop-color="#17a0d6"/>
      <stop offset=".48110237121582" stop-color="#5378d3"/>
      <stop offset=".662366256713867" stop-color="#a543d0"/>
      <stop offset=".670891418457031" stop-color="#a743d0"/>
      <stop offset=".854235763549805" stop-color="#db43d0"/>
      <stop offset=".944134063720703" stop-color="#ef43d0"/>
    </linearGradient>
    <linearGradient id="_Безымянный_градиент_2-2" data-name="Безымянный градиент 2" x1="221.7203369140625" y1="65.557103866747639" x2="274.118621826171875" y2="65.557103866747639" xlink:href="#_Безымянный_градиент_2"/>
  </defs>
  <g>
    <path class="cls-3" d="m326.984954833984375,23.559100151062012c-1.76318359375-4.812215805053711-4.188751220703125-8.718497276306152-7.2864990234375-11.728532791137695-3.097747802734375-3.000344276428223-6.78973388671875-5.172640800476074-11.08563232421875-6.507197380065918-4.29595947265625-1.334556579589844-8.981536865234375-1.996959686279297-14.046966552734375-1.996959686279297h-22.814208984375c-3.087982177734375,0-5.581756591796875.94488000869751-7.471588134765625,2.834699153900146-1.88983154296875,1.889819622039795-2.834686279296875,4.383595943450928-2.834686279296875,7.481330394744873v17.563636779785156c6.05908203125,8.504156112670898,11.17327880859375,16.092626571655273,11.17327880859375,17.397989273071289,0,1.334556579589844-5.10443115234375,8.621047973632812-11.17327880859375,16.7745361328125v16.569999694824219c0,3.087982177734375.94488525390625,5.581756591796875,2.834686279296875,7.471580505371094s4.38360595703125,2.834754943847656,7.471588134765625,2.834754943847656h22.814208984375c5.0654296875,0,9.751007080078125-.662399291992188,14.046966552734375-1.996955871582031,4.2958984375-1.324867248535156,7.987884521484375-3.51666259765625,11.08563232421875-6.565704345703125,3.097747802734375-3.058731079101562,5.5233154296875-6.984512329101562,7.2864990234375-11.796730041503906,1.75341796875-4.812217712402344,2.639923095703125-10.695953369140625,2.639923095703125-17.661026000976562v-12.887752532958984c0-7.042957305908203-.886505126953125-12.97545051574707-2.639923095703125-17.787668228149414Zm-18.761810302734375,30.675420761108398c0,3.010093688964844-.185089111328125,5.757156372070312-.57470703125,8.250930786132812-.389678955078125,2.4937744140625-1.10076904296875,4.617378234863281-2.12359619140625,6.38055419921875-1.0325927734375,1.763175964355469-2.435333251953125,3.136680603027344-4.188812255859375,4.120559692382812-1.76318359375.993637084960938-4.023101806640625,1.490447998046875-6.770172119140625,1.490447998046875h-4.49078369140625c-3.993927001953125,0-7.23779296875-3.243881225585938-7.23779296875-7.247550964355469V28.351815223693848c0-3.993919372558594,3.243865966796875-7.237796783447266,7.23779296875-7.237796783447266h4.49078369140625c2.7470703125,0,5.006988525390625.496816635131836,6.770172119140625,1.48069953918457,1.75347900390625.993633270263672,3.15625,2.367134094238281,4.188812255859375,4.120561599731445,1.0228271484375,1.763177871704102,1.733917236328125,3.896530151367188,2.12359619140625,6.38055419921875.389617919921875,2.49383544921875.57470703125,5.240837097167969.57470703125,8.250930786132812v12.88775634765625Z"/>
    <path class="cls-1" d="m272.618621826171875,48.604065895080566c0,1.334556579589844-5.10443115234375,8.621047973632812-11.17327880859375,16.7745361328125-1.14947509765625,1.548896789550781-2.33795166015625,3.136734008789062-3.536102294921875,4.714828491210938-7.471633911132812,9.877716064453125-15.177001953125,19.589790344238281-16.12188720703125,20.554168701171875-1.889816284179688,1.938514709472656-4.510238647460938,2.9029541015625-7.871002197265625,2.9029541015625-3.263381958007812,0-5.854537963867188-.964439392089844-7.793060302734375-2.9029541015625-1.928817749023438-1.928764343261719-2.9029541015625-4.490737915039062-2.9029541015625-7.666419982910156V12.34682559967041c0-3.087983131408691.974136352539062-5.581759929656982,2.9029541015625-7.471579074859619,1.938507080078125-1.889819145202637,4.529678344726562-2.834699153900146,7.793060302734375-2.834699153900146,3.360763549804688,0,5.981185913085938.94488000869751,7.871002197265625,2.834699153900146,1.091018676757812,1.10077428817749,11.2901611328125,14.582733631134033,19.657989501953125,26.330828189849854,6.05908203125,8.504158020019531,11.17327880859375,16.092624664306641,11.17327880859375,17.397991180419922Z"/>
  </g>
  <g>
    <path class="cls-2" d="m184.945114135742188,2.453654527664185C183.222137451171875.819779872894287,180.814010620117188.002846896182746,177.720611572265625.002846896182746c-2.738906860351562,0-4.880752563476562.838737428653985-6.425552368164062,2.516203701961786-1.544784545898438,1.677470207214355-2.5872802734375,3.974749088287354-3.127487182617188,6.89183521270752l-7.4775390625,37.865280151367188c-.793258666992188,4.006019592285156-6.43408203125,4.242008209228516-7.55712890625.315586090087891l-10.804031372070312-37.782829284667969c-1.148651123046875-3.709382057189941-2.584457397460938-6.268231391906738-4.307403564453125-7.676548004150391S134.155731201171875.017059255391359,131.593093872070312.011371708475053c-2.826095581054688,0-5.145187377929688.728799902833998-6.957221984863281,2.186395072378218-1.812034606933594,1.457595348358154-3.203285217285156,3.909352779388428-4.173782348632812,7.355268001556396l-10.468559265136719,37.495672225952148c-1.100303649902344,3.940624237060547-6.755363464355469,3.730232238769531-7.559967041015625-.284317016601562l-7.676544189453125-38.283226013183594c-1.059524536132812-5.654110908508301-4.108360290527344-8.48116397857666-9.146476745605469-8.48116397857666-3.09149169921875,0-5.520500183105469.861478924751282-7.287033081054688,2.584436655044556-1.766563415527344,1.722957849502563-2.650749206542969,4.085628271102905-2.652664184570312,7.088014364242554-.002532958984375,1.387709617614746.17620849609375,2.769808769226074.531669616699219,4.111220359802246l16.038307189941406,69.975996017456055c.796066284179688,3.535011291503906,2.143722534179688,6.093856811523438,4.042976379394531,7.676551818847656,1.899246215820312,1.58270263671875,4.262840270996094,2.377845764160156,7.090835571289062,2.385414123535156,2.73699951171875,0,5.099685668945312-.685203552246094,7.088027954101562-2.055610656738281s3.468681335449219-3.822166442871094,4.441024780273438-7.355270385742188l14.36083984375-51.239536285400391c.329437255859375-1.212215423583984,1.5792236328125-1.927839279174805,2.791458129882812-1.598386764526367.778579711914062.211597442626953,1.386764526367188.819814682006836,1.598373413085938,1.598386764526367l14.247100830078125,51.367473602294922c1.768447875976562,6.184837341308594,5.654129028320312,9.277252197265625,11.656982421875,9.277252197265625,2.829910278320312,0,5.216262817382812-.795135498046875,7.159103393554688-2.385421752929688,1.94281005859375-1.59027099609375,3.355880737304688-4.196510314941406,4.239166259765625-7.818702697753906l16.03546142578125-70.374046325683594c.351547241210938-1.297650337219238.530319213867188-2.636011123657227.53167724609375-3.980432510375977.003814697265625-2.901915550231934-.855758666992188-5.169810771942139-2.5787353515625-6.803683996200562Z"/>
    <path class="cls-2" d="m65.742538452148438,65.793709754943848h0c-.353073120117188-.752128601074219-.849479675292969-1.428153991699219-1.461395263671875-1.990215301513672-1.504981994628906-1.370407104492188-3.448726654052734-2.055610656738281-5.831336975097656-2.055610656738281-2.477359771728516,0-4.266624450683594.663410186767578-5.367897033691406,1.990215301513672-1.164684295654297,1.428291320800781-2.083297729492188,3.040634155273438-2.718082427978516,4.770828247070312-.972373962402344,3.091468811035156-2.496273040771484,5.476882934570312-4.571796417236328,7.15625-2.075489044189453,1.679367065429688-5.676837921142578,2.518096923828125-10.804031372070312,2.516204833984375-5.388740539550781,0-9.475303649902344-1.990219116210938-12.259729385375977-5.970649719238281s-4.175674438476562-10.253402709960938-4.173765182495117-18.818916320800781v-12.967681884765625c0-8.747472763061523,1.39124870300293-15.064987182617188,4.173765182495117-18.952545166015625,2.782516479492188-3.887552261352539,6.869081497192383-5.831331253051758,12.259729385375977-5.831331253051758,4.683639526367188,0,8.151351928710938.773342132568359,10.403133392333984,2.320024490356445,2.251766204833984,1.546682357788086,3.862880706787109,3.953903198242188,4.833381652832031,7.221643447875977.792316436767578,2.033815383911133,1.785514831542969,3.580499649047852,2.979633331298828,4.640048980712891,1.194114685058594,1.059549331665039,3.027976989746094,1.589328765869141,5.501518249511719,1.589328765869141,2.562667846679688,0,4.528205871582031-.750600814819336,5.896720886230469-2.251791000366211,1.368484497070312-1.501192092895508,2.053695678710938-3.534061431884766,2.05560302734375-6.098594665527344-.036514282226562-2.803165435791016-.692886352539062-5.563522338867188-1.921981811523438-8.083118438720703-1.371051788330078-2.854701995849609-3.334751129150391-5.384440422058105-5.760223388671875-7.42066478729248-2.560756683349609-2.208186626434326-5.852195739746094-4.019290447235107-9.874309539794922-5.433290004730225C45.079364776611328.709842324256897,40.374847412109375.002846896182746,34.987998962402344.002842557849362c-5.117681503295898.000004338333383-9.822196960449219.773341464577243-14.113479614257812,2.320024597225711-4.221504211425781,1.502518892288208-8.017662048339844,4.002405405044556-11.065596580505371,7.287035226821899-3.093365669250488,3.315128326416016-5.501519203186035,7.51164436340332-7.22447681427002,12.58953857421875C.861504912376404,27.277338981628418.000017353308067,33.352238655090332,0,40.424134254455566v12.987579345703125c0,6.979022979736328.861487567424774,13.008438110351562,2.584445476532892,18.088218688964844,1.722958087920233,5.079788208007812,4.131111145018622,9.277244567871094,7.224476337431952,12.592384338378906,3.058382034301758,3.289642333984375,6.850946426391602,5.809898376464844,11.068443298339844,7.355270385742188,4.283699035644531,1.59027099609375,8.988180160522461,2.385414123535156,14.113479614257812,2.385414123535156,4.947116851806641,0,9.387184143066406-.663406372070312,13.320224761962891-1.990219116210938,2.978313446044922-.971900939941406,5.797565460205078-2.376266479492188,8.367450714111328-4.168083190917969-.901294708251953,2.334236145019531-1.595012664794922,4.4808349609375-1.876483917236328,6.155448913574219-1.327770233154297,7.841453552246094,6.055957794189453,14.440437316894531,13.010326385498047,13.317398071289062,5.558403015136719-.895606994628906,9.635490417480469-6.055938720703125,9.459220886230469-11.873062133789062-.14788818359375-4.810630798339844-11.529052734375-29.480781555175781-11.529045104980469-29.48077392578125Z"/>
  </g>
</svg>