<?xml version="1.0" encoding="UTF-8"?>
<svg id="_Слой_1" data-name="Слой 1" xmlns="http://www.w3.org/2000/svg" xmlns:xlink="http://www.w3.org/1999/xlink" viewBox="0 0 331.124868625211093 107.272657075181087">
  <defs>
    <style>
      .cls-1 {
        stroke: url(#official_grad);
      }

      .cls-1, .cls-2 {
        stroke-linecap: round;
        stroke-linejoin: round;
        stroke-width: 3px;
      }

      .cls-3 {
        stroke-width: 0px;
      }

      .cls-2 {
        stroke: url(#official_grad-2);
      }
    </style>
    <linearGradient id="official_grad" x1="259.945350578258513" y1="47.790672083852769" x2="331.124868625211093" y2="47.790672083852769" gradientUnits="userSpaceOnUse">
      <stop offset="0" stop-color="#00dcfe"/>
      <stop offset=".078236451226442" stop-color="#00d7fa"/>
      <stop offset=".158312840994827" stop-color="#00cbef"/>
      <stop offset=".238976911722893" stop-color="#00b7dd"/>
      <stop offset=".261809727333111" stop-color="#00b0d7"/>
      <stop offset=".332372013317156" stop-color="#17a0d6"/>
      <stop offset=".481102380312898" stop-color="#5378d3"/>
      <stop offset=".662366244062107" stop-color="#a543d0"/>
      <stop offset=".670891381185329" stop-color="#a743d0"/>
      <stop offset=".854235760257974" stop-color="#db43d0"/>
      <stop offset=".94413407821229" stop-color="#ef43d0"/>
    </linearGradient>
    <linearGradient id="official_grad-2" data-name="official_grad" x1="221.720344763351022" y1="47.795547502421869" x2="274.118620812088921" y2="47.795547502421869" xlink:href="#official_grad"/>
  </defs>
  <g>
    <path class="cls-1" d="m326.984948382707444,23.559098591522343c-1.763177288607039-4.812216496644396-4.188757483043446-8.718496984301964-7.286491420447419-11.728532843786525-3.097733937403973-3.000344478670741-6.789733833318678-5.172640732812397-11.085631612233556-6.50719738160933-4.295957235239257-1.334556648796934-8.981531761735823-1.996959554626301-14.0469727423515-1.996959554626301h-22.814223912346279c-3.087983100263955,0-5.581759698345195.944879901216154-7.471578957100064,2.834699159970114s-2.834699159970114,4.3835958568352-2.834699159970114,7.481329794239173v17.563635938751759c6.059075067521917,8.504156936235631,11.173270233830408,16.092627026345326,11.173270233830408,17.397990620052042,0,1.334556648796934-5.104444329170292,8.621048069244353-11.173270233830408,16.774531606452001v16.570001851845518c0,3.087983100263955.944879901215245,5.581759698345195,2.834699159970114,7.471578957100064s4.383595856836109,2.834758616294494,7.471578957100064,2.834758616294494h22.814223912346279c5.065440980615676,0,9.751015507112243-.662402905829367,14.0469727423515-1.996959554626301,4.295897778914878-1.324865267983114,7.987897674829583-3.516663196400259,11.085631612233556-6.565702404437616,3.097733937403973-3.058730588852995,5.52331413184038-6.984512750785143,7.286491420447419-11.796729247431358,1.753426451470659-4.812216496644396,2.639920242503649-10.695954864651867,2.639920242503649-17.661025397484991v-12.887752793069012c0-7.042958317289958-.88649379103299-12.975450870989334-2.639920242503649-17.78766736763373Zm-18.761799780262663,30.675420160702743c0,3.01009531580894-.185087536650826,5.75715585418402-.574704827909954,8.250932452263442-.389676747581689,2.49377659808124-1.100774382777672,4.617378122853552-2.123601524774131,6.380555411460591-1.032577979134658,1.763177288607039-2.435331031574606,3.136677829634209-4.188816939367825,4.120561079400431-1.763177288607039.99363408690806-4.02311216434282,1.49045113036118-6.7701727027179,1.49045113036118h-4.490795609030101c-3.993919109254421,0-7.237796691080803-3.243877581828201-7.237796691080803-7.247547528220821V28.35181341389125c0-3.993919109253511,3.243877581826382-7.237796691081712,7.237796691080803-7.237796691081712h4.490795609030101c2.747060538375081,0,5.006995414110861.49681704345312,6.7701727027179,1.480700293221162,1.75348590779322.993634086906241,3.156238960233168,2.367134627931591,4.188816939367825,4.120561079400431,1.022827141996459,1.763177288607039,1.733924777192442,3.896529650520279,2.123601524774131,6.380555411460591.389617291259128,2.49383605440471.574704827909954,5.240837136455411.574704827909954,8.250932452264351v12.887752793069012Z"/>
    <path class="cls-2" d="m272.618620812088921,48.604064324513274c0,1.334556648796934-5.104444329170292,8.621048069244353-11.173270233830408,16.774531606452001-1.149469112144288,1.548896696864176-2.337941572841373,3.13673728595495-3.536105414352278,4.714827037911164-7.471638413424444,9.877716933584452-15.176999636545588,19.589788548468277-16.121879537760833,20.554170123959921-1.889819258754869,1.938513988123304-4.51023782698212,2.902955019937508-7.871006541818133,2.902955019937508-3.263379256104599,0-5.854545312919072-.964441031814204-7.793059301038738-2.902955019937508-1.928822607307666-1.928763150983286-2.902955019937508-4.490736152707541-2.902955019937508-7.666417330890908V12.346825009140957c0-3.087983100265774.974132412629842-5.581759698346104,2.902955019937508-7.471578957100974,1.938513988119666-1.88981925875396,4.529680044934139-2.834699159970114,7.793059301038738-2.834699159970114,3.360768714836013,0,5.981187283063264.944879901216154,7.871006541818133,2.834699159970114,1.091023545639473,1.100774382778582,11.290161366840039,14.582733678034856,19.657984952113111,26.330827652421249,6.059075067521917,8.504156936235631,11.173270233830408,16.092627026345326,11.173270233830408,17.397990620052042Z"/>
  </g>
  <g>
    <path class="cls-3" d="m184.945111188095325,2.453653533193574C183.222136012313058.819778913779373,180.814017557491752.002845942397471,177.720616997163233.002845942397471c-2.738907198692687,0-4.880756506210673.838737402011247-6.425547922570331,2.51620352937789-1.544791416363296,1.677470465694569-2.587273999453828,3.9747490084319-3.127482455884092,6.891835628208355l-7.477540118063189,37.865280960686505c-.79325438356318,4.006019668193403-6.434085749764563,4.242007294247742-7.557122385369439.315587246659561l-10.804030302124374-37.782831059344971c-1.148650117187572-3.709382233111683-2.584462763665215-6.268231515194202-4.307403232829529-7.676547846249377S134.155729018424609.017058301082216,131.593096715352658.0113707546152c-2.826090214593933,0-5.145186202940749.728799861899461-6.957218551813639,2.186395247374094-1.812032348865614,1.457595385478271-3.203281702188178,3.909353069851932-4.173782766571094,7.355268714791237l-10.468556165287737,37.495672868377369c-1.10030380302851,3.940623729613435-6.75536488122998,3.730232231839182-7.559968327768729-.28431658689442l-7.676547846247558-38.283226690495212c-1.059523530862862-5.654110984623912-4.108360798030844-8.481164307768267-9.146477094891452-8.481164307768267-3.091491696524827,0-5.520503533345618.861478911234371-7.287035510464193,2.584436733704933-1.766566683727433,1.722957822468743-2.650752397574252,4.085627965459935-2.652661261374305,7.088014767297864-.002533582870456,1.3877092786297.176205482383011,2.769809100675047.531670629234213,4.111219755410275l16.038308384770062,69.976001317413647c.796065619346336,3.535007524642424,2.14372346471464,6.093856806728581,4.04297353610491,7.676547846243921,1.899250071388451,1.582699716171192,4.262839939667174,2.377845610229997,7.090839018059341,2.385411652219773,2.736998334883538,0,5.099685831184615-.685204015626368,7.088027782279823-2.055612046871829s3.468683184126348-3.822170053947048,4.441023699086145-7.355268714789418l14.360833580749386-51.239535637831978c.329435185891271-1.212215281844692,1.579220378054742-1.927839645175482,2.79145301320932-1.598387105976144.778573485582456.211597552635794,1.386772200028645.819813620395507,1.598378429318473,1.598387105976144l14.247100004668027,51.367472895947685c1.768440840918629,6.184840196932782,5.654123999600415,9.277251618746959,11.656980062825824,9.277251618746959,2.829907942194041,0,5.216265349659807-.795137217410229,7.159106928998881-2.385420328871987,1.94280687272294-1.590274434805906,3.355886686640588-4.196506922489789,4.239170028502485-7.818706139696587l16.035462442372591-70.374042803733573c.351543299399054-1.297649952040956.530317071266836-2.636010763020749.531670629236032-3.980432216574627.003817727607384-2.901915490863757-.855760996477329-5.169810546003646-2.578736172254139-6.803685165421484Z"/>
    <path class="cls-3" d="m65.742536188683516,65.793706753601327h0c-.353070390441644-.75212704524165-.849479099231758-1.428151161300775-1.461391421446024-1.990216108286404-1.504982929400285-1.370408031245461-3.44872688072428-2.055612046864553-5.831335973811292-2.055612046864553-2.477358150972577,0-4.266622960658424.663408261647419-5.367898548898665,1.990216108286404-1.164684573135673,1.428289987761673-2.083299248673939,3.040637829464686-2.718083229921831,4.770831981080846-.972375221566836,3.091465666570002-2.496273255936103,5.476885995431076-4.571798222939833,7.156252309949195-2.075490260383958,1.679366314521758-5.676839478866896,2.518095039875334-10.804030302122555,2.516203529383347-5.388739870975769,0-9.475304915029483-1.990216108290042-12.259729838779094-5.970648324859212-2.78442492375143-3.980432216576446-4.175674277070357-10.253401184661925-4.173765413270303-18.81891558091138v-12.967684040284439c0-8.747472500008371,1.391249353322564-15.064987407949957,4.173765413270303-18.95254472382112,2.782516059944101-3.887552977546875,6.869081103997814-5.831331635485185,12.259729838779094-5.831331635485185,4.683640288525567,0,8.151351687442002.77334146342946,10.403134196745668,2.3200243902902,2.251765156002875,1.546682926857102,3.862880912882247,3.95390334802687,4.833381977265162,7.221643910204875.79231730497122,2.03381629289288,1.785516495308912,3.5804992197518,2.979632277634664,4.640048780573125,1.194115782327572,1.059549560824962,3.02797859178645,1.589328679561731,5.501519015155282,1.589328679561731,2.562667009688084,0,4.52820671498921-.750599954204517,5.896723235737227-2.2517911859577,1.368481814131883-1.501191231755001,2.053694506412285-3.534061769403706,2.055603370214158-6.098594259627134-.03651135857217-2.803166495639744-.692882854105846-5.563522382159135-1.92198290396118-8.08311848311314-1.371050103616653-2.854701480013318-3.334750358339079-5.384440589088626-5.760222120463368-7.420664653371205-2.560758145891668-2.208186663026936-5.852194649196463-4.019290609958261-9.874309509918021-5.433290149154345C45.079363167233168.709841373669406,40.374846850019821.002845942397471,34.987998489543315.002841604073183c-5.117681210858791.000004338324288-9.822197528072138.773341463427641-14.113479538415049,2.320024390284743-4.22150436166703,1.502518759763916-8.017661807954937,4.002405841951258-11.065596703143456,7.287035510462374-3.093365853717842,3.315128106101838-5.501519015157101,7.511643705247479-7.224476837627662,12.589538120777434C.861504941192834,27.277338379459252.000017353308067,33.352236697957778,0,40.424134581095132v12.987579607108273c0,6.979022982438437.861487587888405,13.008438282485258,2.584445410357148,18.088219870186549,1.722957822470562,5.079790264357143,4.131110983909821,9.277242942094745,7.224476837627662,12.592384063176723,3.058381586184623,3.2896404359999,6.85094689786456,5.809895962633163,11.068442645542746,7.355268714789418,4.283698615046887,1.590274434809544,8.988180225649558,2.385411652216135,14.113479538409592,2.385411652216135,4.947115553353797,0,9.387184820538096-.663408261647419,13.320225154853688-1.990216108290042,2.978313426279783-.97189800562046,5.797566437791829-2.376266459261387,8.367452423319264-4.168082205120299-.901296074845959,2.334236748967669-1.59501188770264,4.480832186043699-1.876482532203227,6.155452371011052-1.327770955196684,7.841456325571926,6.055957183574719,14.440433201358246,13.01032979298725,13.317396565762465,5.558403156501299-.895604190056474,9.635493294767002-6.055939830264833,9.459218399155361-11.8730634453932-.147884884860105-4.810631791391643-11.529051481365968-29.480778912940877-11.529051481365968-29.480778912940877Z"/>
  </g>
</svg>