<?xml version="1.0" encoding="UTF-8"?>
<svg id="_Слой_1" data-name="Слой 1" xmlns="http://www.w3.org/2000/svg" xmlns:xlink="http://www.w3.org/1999/xlink" viewBox="0 0 200 200">
  <defs>
    <style>
      .cls-1 {
        fill: url(#_Безымянный_градиент_2);
        stroke-width: 0px;
      }
    </style>
    <linearGradient id="_Безымянный_градиент_2" data-name="Безымянный градиент 2" x1="24.806393299108095" y1="160.803339107134889" x2="175.104405709833088" y2="39.094408435984775" gradientUnits="userSpaceOnUse">
      <stop offset=".05586592178771" stop-color="#ef43d0"/>
      <stop offset=".145764239742026" stop-color="#db43d0"/>
      <stop offset=".329108618814672" stop-color="#a743d0"/>
      <stop offset=".337633755937893" stop-color="#a543d0"/>
      <stop offset=".518897619687102" stop-color="#5378d3"/>
      <stop offset=".667627986682844" stop-color="#17a0d6"/>
      <stop offset=".738190272666889" stop-color="#00b0d7"/>
      <stop offset=".761023088277107" stop-color="#00b7dd"/>
      <stop offset=".841687159005173" stop-color="#00cbef"/>
      <stop offset=".921763548773558" stop-color="#00d7fa"/>
      <stop offset="1" stop-color="#00dcfe"/>
    </linearGradient>
  </defs>
  <path class="cls-1" d="m183.502884147039367,49.650253492383854c-3.38156015709319-5.593395594622052-10.529889833915149-7.529631633488862-16.246839306502807-4.361428341107967-1.630888236799365.903801145368561-3.21761526339651,1.878768584468162-4.756044840536561,2.921135786224113v-.26995849609375c0-9.967579479107371-2.32887103469875-19.385380680160779-6.476920179038643-27.743831515070269l-.008701624343303-.010137367701645c-15.848980726452282-11.147607640251408-35.166876881548887-17.686033558634335-56.014378196618054-17.686033558634335-20.847501315068257,0-40.165397470165772,6.538425918382927-56.014378196618964,17.686033558634335l-.008701624342393.010137367700736c-4.148049144341712,8.35845083490949-6.476920179038643,17.776252035963807-6.476920179038643,27.743831515071179v.26995849609375c-1.538429577141869-1.042367201756861-3.125156603739924-2.01733464085828-4.756044840542017-2.921135786225932-5.716949472586748-3.168203292378166-12.865279149404159-1.231967253510447-16.24683930649644,4.361428341109786-8.886224154131014,14.698590215015429-13.997115852961542,31.928904072978185-13.997115852961542,50.349746507616146,0,18.440642289888274,5.121912680610876,35.688272480660089,14.025859667053737,50.397215111201149,3.366994375160175,5.562131847484125,10.529013465514254,7.471736547267938,16.213674833325058,4.316013659486998l.14601048975419-.081054721567853c2.083916112892439-1.156843186985498,4.670328491823057.205271357175661,4.889149844792883,2.578688669898838.726643341384261,7.881442387626521,2.921223540496612,15.339601253592264,6.3108084860296,22.091730433896373l1.276791808156304,1.45169551370418c15.581648574858264,10.575508317560889,34.395141588444858,16.745711333380314,54.637704870888228,16.745711333380314,20.24256350923315,0,39.056056717592583-6.17020315407899,54.637704810149444-16.745711426528942l1.276792460508659-1.451696313879438c3.389584839709642-6.752129445854735,5.58416498673796-14.210288689802837,6.310809096996309-22.091731735796202.218821412348916-2.373415643685803,2.805232069489648-3.73552911052866,4.889146859470202-2.578686953493161l.146015270363932.081057354716904c5.684661298295396,3.155722042931302,12.846679673153631,1.246116829943276,16.213673343083428-4.316014894066029,8.903945096435564-14.708942262648634,14.025858159428026-31.956573052713793,14.025858159428026-50.397216030953132,0-18.420842434637962-5.110891698830528-35.651156292601627-13.997115852960633-50.349746507616146Zm-50.570594476939732,22.675087383333448l.000526054662259,7.012392899835504c.000123201551105,1.642296382465247,1.08165950953844,3.038961644038864,2.626920801771121,3.59511356731764,1.240655137611611.446521727023537,2.401731255271443,1.014537771631694,3.484922335326701,1.676502791021449.022325869354972.013643894243614.022955187223488.045614696323355.001513092565801.060609257650867-2.09363227286849,1.464087255263621-3.833958488841745,3.397322497864479-5.063646039208834,5.650609550581976h-.014304355470813c-.291407631833863.537459990233401-.545746049803711,1.097597617186693-.779064042968457,1.668463510741276-.612906743164785-.423984584960635-1.35411657714576-.675357465820525-2.155771035153521-.675357465820525-5.241063510742606-.005931074219916-9.488323203127948-4.25319076660162-9.494254277344226-9.494254277343316l.000008801045624-3.54988158496144c.000005144833267-2.075155895834541-1.552681745883092-3.950281014091161-3.625821451700176-4.041734566319974-2.175623842020286-.095974491301604-3.969625659894518,1.639458577765254-3.969625659894518,3.793896996007788v3.797719155273626c.010641044924341,9.433984096679524,7.655708491212863,17.079051542968955,17.089692587893296,17.089692587889658.322545771483419,0,.630438300780952-.052420229492782.929434218747701-.128128647460471.195430243209557,6.949645564540333,4.642117892428359,12.817201762616605,10.83968043493951,15.112698100061607.024848031080182.009203386644003.032306568193235.040851261494026.013942705105364.059953499754556-3.505669034031598,3.646625158939059-8.400778523227928,5.841671848829719-13.681873325593187,5.842801569129733l-3.549881584958712-.000008801047443c-2.07515589583636-.000005144831448-3.950281014094799,1.552681745883092-4.041734566319064,3.625821451701995-.095974491303423,2.175623842020286,1.639458577765254,3.969625659892699,3.793896996006879,3.969625659892699h3.797719155270897c1.224692735775534-.00163579346372,2.447940783074955-.087743372027035,3.660958274085715-.257608284573507.023906377378808-.003347729718371.044802452128351.017279598163441.042127051978241.041270521604019-.197350396767433,1.769686025108967-.70651991086379,3.425622342472707-1.44258166043619,4.941780538354578-.000805981851954.001660181356783.000108277094114.002720897782638-.001737206159305.002720225433222-.137426435261659-.000050067441407-27.235164865011029-.000038276906707-27.30496135424255-.000038246453187-.001571680426423.000000000685759-.000576487267608-.000906871584448-.001264047517907-.002320179855815-1.207219199317478-2.481488545325192-1.767266342909352-5.31422910173751-1.44830680477753-8.260201478808085.828337640508835-7.650420190697332,7.242771425173487-13.462557647209906,14.918083161755931-13.554040805209297,1.844645165559996-.021986594281771,3.563928347268302-1.237422859476283,3.910396020151893-3.049371906441593.463920998272442-2.426203875518695-1.383282060207421-4.547234060808478-3.725870900658265-4.547234060808478-5.582490023232822-.00381963955806-10.969456295679265,2.050155317687313-15.131547155158842,5.767795894898882-.023416776906743.020916208453855-.059351907531891.005112306187584-.059351812293244-.02628567490865l.00010956803817-36.123176240497742c0-4.251042428877554,1.751109854094466-8.088948552070178,4.565405828096118-10.846036758771334.007112666226021-.006968083084757.016789640221759-.01091139827804.026746758414447-.01091139827804l21.197273611711353.000000000721229c.009957125221263,0,.019634123376818.003943336675547.026746792305858.010911427038081,2.81438304482981,2.757175338955676,4.565493029982463,6.595168584692146,4.565493029982463,10.846211172648509Zm-66.819812894038478,59.79197499163638c-.738973794411322-1.519225431338782-1.245595594882616-3.178044864793264-1.444355837784315-4.941785052733394-.002705025925025-.024003607879422.018196132053163-.044613245245273.042118280306568-.041263442346462,1.213083622509657.169867312499264,2.436234131021592.25597298219509,3.660999255225761.257608757350681l3.54988158496235.000008801045624c2.075155895830903.000005144833267,3.950281014083885-1.552681745877635,4.041734566318155-3.625821451687443.095974491309789-2.175623842023924-1.639458577761616-3.969625659905432-3.793896996006879-3.969625659905432h-3.797719155273626c-5.076055332437136-.001041722915033-9.676560953968874-2.004161552877122-13.082848523272332-5.249107012352397-.020969509410861-.019976268289611-.011087734734247-.055045256658559.017081900641642-.061771567861797,3.573243918685876-.853214827988268,6.696649947045444-2.856657700775031,8.954223863842344-5.601774652208405,2.26295180962552-2.740072343005522,3.652833483673021-6.212329895095536,3.777295488592245-10.024308716381711.000586209906942-.017954232291231.01407865110923-.032334795170755.031963960006578-.034012241085293,8.683984178085666-.814462520844245,15.483141186249668-8.111144095277268,15.493072709603439-17.006042919485481l.000008798644558-3.549988018223303c.00000514318981-2.075121930409296-1.552675199312944-3.950203509668427-3.625782089293352-4.041630249756054-2.175602291729774-.095946922091571-3.969577798218779,1.639476493352049-3.969577798218779,3.793899112705731v3.797719155273626c-.005922136299887,5.222192044511758-4.22309461970417,9.456182037641156-9.438037098564564,9.492269887561633-.014412460239328.000099735464573-.027862051778357-.008340785181645-.033954856101445-.021402434880656-1.438267980322053-3.083334296773501-3.78899350993288-5.646265266564114-6.711317670385142-7.348359431399331-.024986755459395-.014553419926415-.024324993617483-.050533639821879.001453194151509-.063634212911893.711260371310345-.36146522650688,1.444949817355337-.689676486634198,2.210481061766586-.963079546133486,1.538454086013189-.549445965903942,2.577611407965378-1.988972381181156,2.577726601246468-3.62259774550148l.000491302066621-6.967450794078104c0-4.250955093048105,1.75110966635566-8.088860919075159,4.565318490276695-10.846035978868713.007112713976312-.006968565168791.016789998442619-.010912176767306.026747488116598-.010912176767306l21.197621252779754-.000000000083674c.009957503878468,0,.019634822304397.003943634242205.026747546135084.010912209650996,2.814208584994958,2.757175057198765,4.565231243200287,6.595080869748017,4.565231243200287,10.846035946068696l.000161271762408,36.123031322346833c.000000140147677.0313909759534-.035981866901238.047226665241396-.059393857065515.026315613429688-4.126431295887414-3.685633644186964-9.456814857157042-5.736127457576004-14.988015487899247-5.767249409725991-1.554589400539044-.008747080457397-3.343647122654147,1.16953965189532-3.776839233693863,2.662579942920274-.744061515769317,2.564483040510822,1.141020820217818,4.899575881630881,3.581877146310035,4.931946059692564,5.291791857199314.070178749501792,10.388426288910523,2.304927413724727,12.970343521909854,6.924634062283076,3.011210454214961,5.387821413389247,2.7888531674771,10.667005482406239.735370055544081,14.890852524507864-.000817896365334.001682346019152.000097492527857.002760663905065-.00177313362019.002760028311968-.13992723987667-.000047543957407-27.164876938186353-.000047536912462-27.302694863560646.000002405631676-.001847590408943.000000669529982-.000935821409257-.001061649345502-.001743982669723-.002723114403125Zm-45.152675616704983-1.454975636166637c-6.03059415527332-2.657993466797052-10.274801088867207-8.702804755859688-10.274801088867207-15.690831289062771v-22.407367829322538c0-17.102741292750579,13.993151970634244-31.095893259544937,31.095893259544027-31.095893259544937h.000031095924896l17.889684794400637-.000117953589324c.027498437854774-.000000181306859.044480730422038.028514750300928.031443660408513.052726294860804-1.761875467777827,3.272033236964489-2.725273234255837,6.973621198371802-2.723971872777838,10.804048572791544l-.000289994267405,4.435141904498778c-.000000907604772.013880805407098-.008035338050831.026427140233864-.020571394420585.032387345788266-2.701745744223444,1.284531555580543-5.067496436287001,2.982012708435832-7.100055699740551,4.957359366922901-.00548808433723.005333605396117-.012580313954459.008569265796723-.020198960178277.009292208335864-5.613182937634519.532641705584865-10.425766935441061,3.84335685086171-13.000550333229512,8.561483349259106h-.014304355468994c-1.286083666991544,2.372168022459846-2.02921237792907,5.087378911131054-2.02921237792907,7.988284755858331,0,6.962763191981139,4.278937939746356,12.91620648148637,10.348071666434407,15.395965807012544.007101057009095.002901388095779.012954395519046.008084128003247.016684447026819.014787095949941,2.686401120533446,4.827509904116596,6.803108247291675,8.722010893239712,11.820427001773169,11.102021071646959v.67143249023502c-.000779269613304,2.288974608836725.342429310116131,4.496636747535376.970147292411639,6.580933509960232.007013325222943.023287290579901-.010037249886409.046068803361777-.0343577069807.046068743957221l-30.080390522931339-.000073474620876c-2.443689799804815,0-4.773031977538267-.514433466796618-6.873678911132629-1.457648710937065Zm168.355198911133812-15.690831289062771c0,7.002330888670258-4.244206933595706,13.047142177732894-10.28910544433711,15.705135644531765-2.100646933591634.928910888671453-4.429989111325995,1.443344355468071-6.859374555664544,1.443344355468071l-32.581447241518617.000061958735387c-.024327287943379.000000046262358-.041350247685841-.022884870710186-.034322570887525-.046174969409549.636223843421249-2.108480019187482.977756411339215-4.321222439384655.97689050088411-6.580815768622415v-.67143249023502c4.779070218921333-2.271332743668609,8.654869039264668-5.861445211414321,11.300005774879537-10.206896292151214.004940603092109-.00811646096372.012976270149011-.01370196382959.022293509859082-.015566244313959,3.821632220353422-.764667926378024,7.17355840667733-2.818595093693148,9.555866960377898-5.715380549472684,2.372255244139524-2.872384355467148,3.801295244142239-6.545027622069028,3.801295244142239-10.574930888671588,0-8.631370200195306-6.573636333008835-15.733657133789166-14.990702866212814-16.548220400390164-.542954956054018-.057217421875066-1.085997133788624-.085738911132466-1.643343666994042-.085738911132466-.32751740722415,0-.651458725584234.015002128905508-.974440605466953.033667568359306-2.039609480067156-1.975493797115632-4.401742698322778-3.65267265964394-7.050117624956329-4.916075371418628-.012541401361887-.005982853988826-.020528342189209-.018525946625232-.020529367859126-.032421315961074l-.000327357769493-4.434898835081185c.001387998749124-3.909385235199807-.982290936270147-7.589091204594297-2.71645289386106-10.804375814195737-.013060936675174-.024216093827818.003977432896136-.05267113080572.031491197943978-.052670957709779l20.376396651970936.000128192803459h.000031095923987c17.102741294236694,0,31.095893259545846,13.993151966794358,31.095893259545846,31.095893259544937v22.407367829322538Z"/>
</svg>