<svg xmlns="http://www.w3.org/2000/svg" viewBox="0 0 638.71 365.37"><g id="Слой_2" data-name="Слой 2"><g id="Слой_1-2" data-name="Слой 1"><path d="M629.91,8.35Q621.11,0,605.31,0q-14,0-21.89,8.58T572.81,32.05L547.33,161c-2.69,13.64-21.9,14.45-25.73,1.08L484.79,33.4q-5.87-19-14.67-26.18T448.23,0q-14.44,0-23.7,7.45T410.31,32.5L374.63,160.24c-3.75,13.42-23,12.7-25.75-1L322.74,28.89Q317.33,0,291.6,0q-15.81,0-24.83,8.8t-9,24.15a53.73,53.73,0,0,0,1.81,14l54.62,238.33q4.05,18.06,13.76,26.18t24.15,8.13q14,0,24.15-7t15.12-25.05L440.27,113a7.75,7.75,0,0,1,14.94,0l48.54,175q9,31.61,39.72,31.6,14.44,0,24.37-8.13t14.45-26.63L636.9,45.14a52.14,52.14,0,0,0,1.81-13.54Q638.71,16.71,629.91,8.35Z"/><path d="M223.91,224.08v0a21.74,21.74,0,0,0-5-6.78q-7.66-7-19.86-7-12.63,0-18.28,6.78a56.42,56.42,0,0,0-9.25,16.25q-5,15.8-15.58,24.37t-36.78,8.58q-27.54,0-41.76-20.32T63.19,181.91V137.67q0-44.68,14.22-64.55t41.76-19.86q23.91,0,35.43,7.9t16.48,24.6q4,10.38,10.15,15.8T200,107q13.1,0,20.09-7.68t7-20.76A64.65,64.65,0,0,0,220.5,51a75.78,75.78,0,0,0-19.63-25.28q-13.1-11.28-33.63-18.51T119.17,0Q93,0,71.09,7.9A94.85,94.85,0,0,0,33.4,32.73Q17.61,49.65,8.8,75.61T0,137.67v44.24q0,35.66,8.8,61.61T33.4,286.4a97,97,0,0,0,37.69,25.05q21.9,8.13,48.08,8.13,25.28,0,45.36-6.77A108.77,108.77,0,0,0,193,298.62c-3.07,7.95-5.43,15.26-6.39,21-4.52,26.71,20.63,49.18,44.31,45.36,18.93-3.05,32.82-20.63,32.22-40.44C262.68,308.08,223.91,224.08,223.91,224.08Z"/></g></g></svg>