<?xml version="1.0" encoding="utf-8"?>
<!-- Generator: Adobe Illustrator 24.3.0, SVG Export Plug-In . SVG Version: 6.00 Build 0)  -->
<svg version="1.1" id="Слой_1" xmlns="http://www.w3.org/2000/svg" xmlns:xlink="http://www.w3.org/1999/xlink" x="0px" y="0px"
	 viewBox="0 0 2429.1 700" style="enable-background:new 0 0 2429.1 700;" xml:space="preserve">
<g>
	<path d="M383.9,399.9C383.9,399.9,383.9,399.9,383.9,399.9c-1.5-3.1-3.4-5.8-5.8-8.1c-6-5.6-13.7-8.4-23.2-8.4
		c-9.8,0-16.9,2.7-21.3,8.2c-4.4,5.4-8,12-10.8,19.6c-3.9,12.7-9.9,22.5-18.2,29.4c-8.3,6.9-22.6,10.3-42.9,10.3
		c-21.4,0-37.7-8.2-48.7-24.5c-11.1-16.3-16.6-42-16.6-77.2v-53.3c0-35.9,5.5-61.8,16.6-77.7c11.1-15.9,27.3-23.9,48.7-23.9
		c18.6,0,32.4,3.2,41.4,9.5c9,6.3,15.4,16.2,19.2,29.6c3.2,8.3,7.1,14.7,11.9,19c4.7,4.4,12,6.5,21.9,6.5c10.2,0,18-3.1,23.4-9.2
		c5.4-6.2,8.2-14.5,8.2-25c0-10.9-2.5-21.9-7.6-33.2c-5.1-11.2-12.7-21.4-22.9-30.4c-10.2-9.1-23.3-16.5-39.3-22.3
		c-16-5.8-34.7-8.7-56.1-8.7c-20.4,0-39.1,3.2-56.1,9.5c-17,6.3-31.7,16.3-44,29.9c-12.3,13.6-21.9,30.8-28.7,51.7
		c-6.8,20.8-10.3,45.8-10.3,74.8v53.3c0,28.6,3.4,53.4,10.3,74.2c6.9,20.8,16.4,38.1,28.7,51.7c12.3,13.6,27,23.7,44,30.2
		c17,6.5,35.7,9.8,56.1,9.8c19.7,0,37.3-2.7,53-8.2c12.7-4.4,23.8-10.1,33.3-17.1c-3.6,9.6-6.3,18.4-7.5,25.2
		c-5.3,32.2,24.1,59.2,51.7,54.6c22.1-3.7,38.3-24.8,37.6-48.7C429.2,501,383.9,399.9,383.9,399.9z"/>
	<g>
		<path d="M598.2,433c-3.1,10.8-7.9,20-14.5,27.7c-6.6,7.7-15,13.7-25.2,17.9c-10.2,4.2-22.4,6.3-36.6,6.3c-14,0-26.1-2.1-36.3-6.3
			c-10.2-4.2-18.6-10.1-25.2-17.9c-6.6-7.7-11.5-17-14.7-27.7c-3.2-10.8-4.8-22.9-4.8-36.3v-22c0-29.1,7-51,21-65.5
			c14-14.6,34-21.8,60-21.8c26.3,0,46.3,7.3,60.2,21.8c13.9,14.6,20.8,36.4,20.8,65.5v22C602.8,410.1,601.3,422.2,598.2,433z
			 M535.4,433.8c3.4-2.2,6.1-5.1,7.9-8.9c1.8-3.8,3-8.3,3.5-13.5c0.5-5.2,0.7-11,0.7-17.3v-16.7c0-14.2-1.8-24.8-5.3-31.7
			c-3.6-7-10.4-10.4-20.4-10.4c-10.1,0-16.9,3.5-20.4,10.4c-3.6,7-5.3,17.5-5.3,31.7v16.7c0,6.3,0.2,12.1,0.7,17.3
			c0.5,5.2,1.7,9.7,3.5,13.5c1.8,3.8,4.5,6.8,7.9,8.9c3.4,2.2,8,3.2,13.6,3.2S532,435.9,535.4,433.8z"/>
		<path d="M719.5,479.5c-6.9,3.5-14.5,5.3-22.8,5.3c-11.8,0-22.1-2.1-30.9-6.3c-8.8-4.2-16.3-10.1-22.5-17.7s-10.7-16.7-13.8-27.2
			c-3.1-10.5-4.6-22.1-4.6-34.8v-26.6c0-13.9,1.8-26.2,5.3-36.8c3.6-10.6,8.5-19.5,14.7-26.6c6.3-7.1,13.8-12.5,22.6-16.1
			c8.8-3.7,18.7-5.5,29.5-5.5c6.4,0,12.5,0.8,18.4,2.5c5.9,1.6,11.3,4.2,16.2,7.8v-54.7c0-8.4,2.4-15.1,7.2-20.1
			c4.8-5.1,11.6-7.6,20.4-7.6c8.3,0,15,2.4,20.1,7.2c5,4.8,7.5,11.3,7.5,19.4v216.5c0,8.1-2.4,14.6-7.2,19.4
			c-4.8,4.8-11.1,7.2-19,7.2c-8.3,0-14.4-2-18.2-5.9c-3.8-3.9-6.3-8.3-7.5-13.1l-0.4-1.5C731.4,470.9,726.4,476,719.5,479.5z
			 M719.5,433.8c3.4-2.2,6.1-5.1,7.9-8.9c1.8-3.8,3-8.3,3.5-13.5c0.5-5.2,0.7-11,0.7-17.3v-20.9c0-12.9-2-22.5-5.9-28.7
			c-3.9-6.2-10.6-9.3-19.9-9.3c-10.1,0-16.9,3.5-20.4,10.4c-3.6,7-5.3,17.5-5.3,31.7v16.7c0,6.3,0.2,12.1,0.7,17.3
			c0.5,5.2,1.7,9.7,3.5,13.5c1.8,3.8,4.5,6.8,7.9,8.9c3.4,2.2,8,3.2,13.6,3.2S716.1,435.9,719.5,433.8z"/>
		<path d="M961.8,392.5c-4.9,5.3-11.7,8-20.2,8h-71.8v1.1c0.5,10.6,2.6,19.2,6.3,25.6c3.7,6.5,11,9.7,22.1,9.7
			c6.1,0,10.8-0.6,14-1.9s5.8-2.9,7.7-4.9c2.7-2.5,5.6-4.6,8.8-6.3c3.2-1.6,6.9-2.5,11-2.5c6.6,0,12.1,2.2,16.6,6.6
			c4.4,4.4,6.6,10.2,6.6,17.3c0,4.1-1,8.3-2.9,12.7c-2,4.4-5,8.4-9.2,12c-1.7,1.3-3.9,2.8-6.4,4.6c-2.6,1.8-6,3.4-10.1,4.9
			s-9.3,2.8-15.3,3.8c-6,1-13.1,1.5-21.2,1.5c-14.5,0-27-2.3-37.6-6.8s-19.2-10.7-26-18.4c-6.8-7.7-11.7-16.8-14.9-27.2
			s-4.8-21.5-4.8-33.4v-26.6c0-29.4,6.9-50.9,20.6-64.6s32.6-20.5,56.7-20.5c25.3,0,44.5,7,57.6,20.9c13.1,13.9,19.7,33.8,19.7,59.6
			v4.2C969.1,380.4,966.7,387.2,961.8,392.5z M876.5,342.2c-3.3,4.7-5.5,11.1-6.4,19.2v1.1h43.8V361c-0.7-9.9-2.9-16.7-6.6-20.3
			c-3.7-3.7-8.7-5.5-15.1-5.5C885.1,335.2,879.9,337.5,876.5,342.2z"/>
	</g>
	<g>
		<path d="M1583.2,480.7c-5.3-5.3-8-12.3-8-20.9v-147c0-8.3,2.6-15,7.8-19.9c5.2-5,12.5-7.4,21.9-7.4c7.6,0,13.5,1.8,18,5.5
			c4.4,3.6,7.3,8.1,8.6,13.3l0.4,1.2c5-7,11-12.1,18.2-15.2c7.2-3.1,14.9-4.7,23.3-4.7c8.9,0,15.7,1.2,20.5,3.5
			c4.8,2.3,7.6,3.8,8.4,4.3c3.6,2.6,6.6,5.7,8.8,9.4s3.3,8.1,3.3,13.3c0,8.3-2.5,15-7.4,19.9c-5,5-11.6,7.4-19.9,7.4
			c-2.9,0-5.7-0.6-8.4-1.8c-2.7-1.2-5.5-2.4-8.4-3.7c-1.3-0.5-2.7-1-4.3-1.6c-1.6-0.5-3.4-0.8-5.5-0.8c-8.3,0-14.9,3-19.5,9
			c-4.7,6-7,15.6-7,28.9v86.4c0,8.6-2.7,15.6-8,20.9c-5.3,5.3-12.6,8-21.7,8C1595.5,488.7,1588.6,486.1,1583.2,480.7z"/>
		<path d="M1750.7,219.9c5.7-5.7,13.3-8.6,22.7-8.6c9.4,0,16.9,2.9,22.7,8.6s8.6,13.3,8.6,22.7c0,9.4-2.9,16.9-8.6,22.7
			s-13.3,8.6-22.7,8.6c-9.4,0-16.9-2.9-22.7-8.6s-8.6-13.3-8.6-22.7C1742.1,233.1,1745,225.6,1750.7,219.9z M1752.1,293.5
			c5.3-5.3,12.6-8,21.7-8c8.6,0,15.6,2.7,20.9,8c5.3,5.3,8,12.3,8,20.9v145.4c0,8.6-2.7,15.6-8,20.9c-5.3,5.3-12.6,8-21.7,8
			c-8.6,0-15.6-2.7-20.9-8c-5.3-5.3-8-12.3-8-20.9V314.4C1744.1,305.8,1746.7,298.9,1752.1,293.5z"/>
		<path d="M1832.6,296.3c4.3-4.6,10-6.8,17-6.8h5.5v-18c0-8.6,2.7-15.6,8-20.9c5.3-5.3,12.6-8,21.7-8c8.6,0,15.6,2.7,20.9,8
			c5.3,5.3,8,12.3,8,20.9v18h15.6c7,0,12.7,2.2,17,6.6c4.3,4.4,6.4,10.8,6.4,19.2c0,7-2.1,12.7-6.4,17c-4.3,4.3-10,6.4-17,6.4h-15.6
			v77c0,7,1,12.5,3.1,16.4c2.1,3.9,6,5.9,11.7,5.9h1.6c7.8,0,13.8,2.3,18,6.8c4.2,4.6,6.3,10.2,6.3,17c0,8.1-2.5,14.6-7.6,19.5
			c-5.1,5-14.3,7.4-27.6,7.4h-4.7c-8.6,0-16.5-0.8-23.8-2.5c-7.3-1.7-13.5-4.9-18.8-9.6c-5.2-4.7-9.3-11.3-12.3-19.9
			c-3-8.6-4.5-19.8-4.5-33.6v-84.4h-5.5c-7,0-12.7-2.1-17-6.4c-4.3-4.3-6.4-10.2-6.4-17.8C1826.1,306.9,1828.3,300.8,1832.6,296.3z"
			/>
		<path d="M2126.7,393.8c-5.2,5.5-12.4,8.2-21.5,8.2H2029v1.2c0.5,10.9,2.7,19.7,6.6,26.4s11.7,10,23.5,10c6.5,0,11.5-0.7,14.9-2
			c3.4-1.3,6.1-3,8.2-5.1c2.9-2.6,6-4.8,9.4-6.4c3.4-1.7,7.3-2.5,11.7-2.5c7,0,12.9,2.3,17.6,6.8c4.7,4.6,7,10.5,7,17.8
			c0,4.2-1,8.5-3.1,13.1c-2.1,4.6-5.3,8.7-9.8,12.3c-1.8,1.3-4.1,2.9-6.8,4.7c-2.7,1.8-6.3,3.5-10.7,5.1c-4.4,1.6-9.8,2.9-16.2,3.9
			c-6.4,1-13.9,1.6-22.5,1.6c-15.4,0-28.7-2.3-39.9-7c-11.2-4.7-20.4-11-27.6-19c-7.2-7.9-12.4-17.3-15.8-27.9
			c-3.4-10.7-5.1-22.1-5.1-34.4v-27.4c0-30.2,7.3-52.4,21.9-66.4c14.6-14.1,34.7-21.1,60.2-21.1c26.8,0,47.2,7.2,61.2,21.5
			c13.9,14.3,20.9,34.8,20.9,61.4v4.3C2134.5,381.3,2131.9,388.3,2126.7,393.8z M2036.2,342c-3.5,4.8-5.8,11.4-6.8,19.7v1.2h46.5
			v-1.6c-0.8-10.2-3.1-17.1-7-20.9c-3.9-3.8-9.2-5.7-16-5.7C2045.3,334.8,2039.7,337.2,2036.2,342z"/>
		<path d="M2175.4,480.7c-5.3-5.3-8-12.3-8-20.9v-147c0-8.3,2.6-15,7.8-19.9c5.2-5,12.5-7.4,21.9-7.4c7.6,0,13.5,1.8,18,5.5
			c4.4,3.6,7.3,8.1,8.6,13.3l0.4,1.2c5-7,11-12.1,18.2-15.2c7.2-3.1,14.9-4.7,23.3-4.7c8.9,0,15.7,1.2,20.5,3.5
			c4.8,2.3,7.6,3.8,8.4,4.3c3.6,2.6,6.6,5.7,8.8,9.4s3.3,8.1,3.3,13.3c0,8.3-2.5,15-7.4,19.9c-5,5-11.6,7.4-19.9,7.4
			c-2.9,0-5.7-0.6-8.4-1.8c-2.7-1.2-5.5-2.4-8.4-3.7c-1.3-0.5-2.7-1-4.3-1.6c-1.6-0.5-3.4-0.8-5.5-0.8c-8.3,0-14.9,3-19.5,9
			c-4.7,6-7,15.6-7,28.9v86.4c0,8.6-2.7,15.6-8,20.9c-5.3,5.3-12.6,8-21.7,8C2187.7,488.7,2180.8,486.1,2175.4,480.7z"/>
	</g>
	<path d="M1534.4,162.3c-7.3-6.9-17.4-10.3-30.5-10.3c-11.6,0-20.6,3.5-27.1,10.6s-10.9,16.8-13.1,29.1l-31.6,159.8
		c-3.3,16.9-27.1,17.9-31.9,1.3l-45.6-159.5c-4.8-15.7-10.9-26.5-18.2-32.4c-7.3-6-16.3-8.9-27.1-8.9c-11.9,0-21.7,3.1-29.4,9.2
		c-7.6,6.2-13.5,16.5-17.6,31L1218,350.6c-4.6,16.6-28.5,15.7-31.9-1.2l-32.4-161.6c-4.5-23.9-17.3-35.8-38.6-35.8
		c-13.1,0-23.3,3.6-30.8,10.9c-7.5,7.3-11.2,17.2-11.2,29.9c0,6,0.7,11.7,2.2,17.3l67.7,295.3c3.4,14.9,9,25.7,17.1,32.4
		c8,6.7,18,10.1,29.9,10.1c11.6,0,21.5-2.9,29.9-8.7c8.4-5.8,14.6-16.1,18.7-31l60.6-216.3c2.6-9.4,15.9-9.4,18.5,0l60.1,216.8
		c7.5,26.1,23.9,39.2,49.2,39.2c11.9,0,22-3.4,30.2-10.1c8.2-6.7,14.2-17.7,17.9-33l67.7-297c1.5-5.6,2.2-11.2,2.2-16.8
		C1545.3,178.8,1541.7,169.2,1534.4,162.3z"/>
</g>
</svg>
