<svg id="Слой_1" data-name="Слой 1" xmlns="http://www.w3.org/2000/svg" viewBox="0 0 1604.16 700"><defs><style>.cls-1,.cls-2{fill:#fff;}.cls-2{stroke:#fff;stroke-miterlimit:10;stroke-width:15px;}</style></defs><path class="cls-1" d="M1518.06,192.45q-9.09-8.62-25.41-8.62-14.45,0-22.6,8.85t-11,24.24l-26.3,133.18c-2.79,14.09-22.63,14.92-26.58,1.11l-38-132.89q-6.06-19.57-15.15-27t-22.61-7.46q-14.91,0-24.47,7.69t-14.68,25.87L1254.44,349.3c-3.87,13.86-23.76,13.12-26.59-1l-27-134.65q-5.59-29.83-32.17-29.83-16.31,0-25.63,9.09t-9.33,24.93a56.05,56.05,0,0,0,1.87,14.46L1192,478.42q4.2,18.65,14.22,27t24.94,8.39q14.44,0,24.93-7.23t15.62-25.87l50.51-180.22a8,8,0,0,1,15.44,0l50.11,180.67q9.33,32.63,41,32.63,14.93,0,25.18-8.39t14.91-27.5l56.4-247.52a53.75,53.75,0,0,0,1.87-14Q1527.15,201.07,1518.06,192.45Z"/><path class="cls-1" d="M1098.8,415.23v0a22.47,22.47,0,0,0-5.14-7q-7.94-7.23-20.51-7.23-13.07,0-18.88,7a58.36,58.36,0,0,0-9.56,16.78q-5.13,16.31-16.08,25.17t-38,8.85q-28.43,0-43.12-21t-14.68-66.19V326q0-46.15,14.68-66.66t43.12-20.51q24.71,0,36.59,8.16t17,25.4q4.18,10.73,10.48,16.32t19.35,5.59q13.52,0,20.74-7.92t7.23-21.45a66.83,66.83,0,0,0-6.76-28.43A78.39,78.39,0,0,0,1075,210.4q-13.51-11.65-34.73-19.11t-49.64-7.46q-27,0-49.64,8.16a97.86,97.86,0,0,0-38.92,25.63q-16.32,17.49-25.41,44.28T867.57,326v45.68q0,36.82,9.09,63.62t25.41,44.29A100.25,100.25,0,0,0,941,505.46q22.6,8.39,49.64,8.39,26.1,0,46.85-7a112.45,112.45,0,0,0,29.43-14.66c-3.17,8.21-5.61,15.76-6.6,21.65-4.67,27.58,21.3,50.79,45.76,46.84,19.55-3.15,33.89-21.3,33.27-41.76C1138.83,502,1098.8,415.23,1098.8,415.23Z"/><path class="cls-1" d="M83.22,375.24A46.57,46.57,0,0,1,77,352.18a48.18,48.18,0,0,1,6.21-23.94A46.23,46.23,0,0,1,99.63,311L183,260.4a23.66,23.66,0,0,1,8-3.1,45.13,45.13,0,0,1,8.86-.89q14.19,0,23.28,9.09t9.09,23.28q0,11.09-6,18.4a50.14,50.14,0,0,1-14.86,12.19l-57.64,32.37L211.8,385a49,49,0,0,1,14.64,12q5.76,7.09,5.76,18.18,0,14.19-9.31,23.27t-23.06,9.09a33.43,33.43,0,0,1-17.29-4.43L99.63,392.53A46.23,46.23,0,0,1,83.22,375.24Z"/><path class="cls-1" d="M450.78,452.81s-17.82,1.25-23.16,0c0,0,33.85-23.71,38.31-29.64s21.38-23.71,28.51-42.44,12.47-25.89,12.47-25.89H487l28.22-24.34s11.87-10.61,13.95-24.65,16.34-56.79,16.34-56.79l-13.66-3.74s20.78-30.89,21.67-64.9.9-41.19,0-54-.59-20-.59-20L535.42,118s2.89-12.17,3.79-20.12c2.13-19-.23-28.87-5.87-40.41s-15.74-31.83-18.11-33.7c0,0-16.17,35.46-18.75,47.56-2.34,10.94-4.8,37.45-4.8,37.45L484,86.18l-4.55,23.25-.35,1.79s-6.68,39.09-6,44-6.46-23.64-6.46-23.64-15.37,34.17-13.59,67.64c0,0-10.91-14.05-13.14-14.51S380.7,327.07,375.65,328.94c0,0,5.05-25.28,0-27.46,0,0-47.81,75.82-53.46,86.12s-22.27,45.87-24.35,54.91-6.83,20-4.45,29.65,9.5,36.82,9.5,36.82l-13.66-7.81s8.32,39,8.61,46.81,2.08,58.66,2.08,76.44,7.43,46.18,15.15,51.8c0,0-7.43-34.63-5.94-52.42s7.13-63,7.13-63,6.23-42.12,9.5-53.67,12.77-41.81,20.19-53.66,37.12-58.35,39.5-61.47,44.84-69.27,44.84-69.27S456.43,275.27,460,264s19.6-52.11,17.82-54c0,0,0,18.4-3.52,34.2-1,4.51-14.9,47.86-19.05,56.28s-18.71,36.82-23.17,44-50.18,73.64-50.18,73.64l-26.73,42.74S339.72,496.81,338.23,509c0,0-9.8,40.56-9.5,45.55,0,0,8,2.81,13.36.94s12.47-4.06,14.26-5.62S344.76,538,346,537.06c0,0,23.17-1.87,33.86-10.3s34.15-20.28,52.56-47.11l18.41-26.84"/><path class="cls-2" d="M350.48,650.82l27.15-19.66,13.57-9.83c4.06-2.94,8.07-6.22,12.62-8.4,3.43-1.64,7.43-2.34,11-.77,3.37,1.46,4.71,4.39,4.47,7.93-.26,3.8-1.69,7.41-2,11.22-.28,4,1.21,8,4.74,10.14,9,5.53,18.6-3.14,25.52-8.14l13.59-9.82c4.34-3.13,8.59-6.5,13.12-9.35,3.32-2.09,8-4.62,11.92-2.63,3.34,1.69,4.95,5.76,7.2,8.54a13.38,13.38,0,0,0,11.22,5c4.61-.24,9-2.13,13-4.26,9.75-5.18,19.28-10.78,28.91-16.17l29.27-16.38c2.41-1.35,22.52-12.62,25.33-14.13,30.7-16.45,28-17.43-2.34-2.26-.78.39-57.16,30.19-76.68,41.12-4.2,2.35-8.37,5-13,6.51-3.65,1.17-8,1.64-11-1.2-2.82-2.63-4.23-6.43-7.09-9-3.53-3.22-8.26-3.76-12.7-2.28-4.78,1.6-8.78,4.72-12.82,7.64L452,624.46c-4.47,3.23-8.91,6.49-13.41,9.68-3.35,2.37-7.38,5.05-11.7,4.21a5.92,5.92,0,0,1-4-2.52,7.3,7.3,0,0,1-.83-4.52c.27-3.79,1.7-7.41,2-11.22a11.87,11.87,0,0,0-4.37-10.46,15.33,15.33,0,0,0-11.22-2.87c-4.88.63-9.2,3.18-13.15,6-4.46,3.14-8.85,6.39-13.27,9.59L354.81,642l-6.68,4.84a2.39,2.39,0,0,0-.83,3.18,2.34,2.34,0,0,0,3.18.83Z"/><path class="cls-1" d="M760.21,328.68a46.57,46.57,0,0,1,6.21,23.06,48.18,48.18,0,0,1-6.21,23.94,46.23,46.23,0,0,1-16.4,17.3l-83.36,50.54a23.7,23.7,0,0,1-8,3.11,45.22,45.22,0,0,1-8.87.88q-14.19,0-23.28-9.09t-9.09-23.27q0-11.08,6-18.41a50.25,50.25,0,0,1,14.85-12.19l57.64-32.37-58.08-33.25A48.92,48.92,0,0,1,617,307q-5.78-7.09-5.77-18.18,0-14.19,9.31-23.28t23.06-9.09a33.5,33.5,0,0,1,17.29,4.43l82.92,50.55A46.2,46.2,0,0,1,760.21,328.68Z"/></svg>