<svg id="Слой_1" data-name="Слой 1" xmlns="http://www.w3.org/2000/svg" viewBox="0 0 700 700"><defs><style>.cls-1,.cls-2{fill:#fff;}.cls-1{stroke:#fff;stroke-miterlimit:10;stroke-width:15px;}</style></defs><path class="cls-1" d="M281,639.41l26.29-19,13.15-9.52c3.93-2.85,7.81-6,12.22-8.14,3.32-1.59,7.2-2.26,10.68-.75,3.26,1.42,4.56,4.26,4.33,7.69-.25,3.67-1.64,7.18-1.9,10.86-.27,3.88,1.17,7.72,4.59,9.82,8.74,5.35,18-3,24.71-7.88l13.17-9.51c4.2-3,8.31-6.29,12.7-9.06,3.21-2,7.75-4.47,11.55-2.55,3.23,1.64,4.78,5.59,7,8.28a12.92,12.92,0,0,0,10.86,4.87c4.46-.22,8.69-2.05,12.58-4.12,9.44-5,18.67-10.43,28-15.65l28.35-15.87c2.33-1.3,21.8-12.22,24.52-13.68,29.73-15.93,27.11-16.88-2.26-2.19-.75.38-55.35,29.24-74.25,39.82-4.07,2.28-8.11,4.86-12.58,6.3-3.54,1.14-7.71,1.59-10.65-1.15-2.73-2.56-4.09-6.24-6.86-8.77-3.42-3.11-8-3.64-12.3-2.2-4.63,1.55-8.5,4.57-12.41,7.4l-13.17,9.51c-4.32,3.13-8.62,6.29-13,9.37-3.24,2.3-7.14,4.9-11.33,4.08a5.74,5.74,0,0,1-3.89-2.44,7.06,7.06,0,0,1-.81-4.38c.26-3.67,1.65-7.17,1.9-10.86A11.48,11.48,0,0,0,348,599.52a14.79,14.79,0,0,0-10.87-2.78c-4.72.61-8.9,3.08-12.73,5.77-4.32,3-8.57,6.19-12.85,9.29l-26.29,19-6.47,4.68a2.33,2.33,0,0,0-.81,3.08,2.28,2.28,0,0,0,3.08.81Z"/><path class="cls-2" d="M22.21,372.54a45.05,45.05,0,0,1-6-22.33,46.64,46.64,0,0,1,6-23.18A44.81,44.81,0,0,1,38.1,310.28l80.72-48.94a22.72,22.72,0,0,1,7.73-3,43.83,43.83,0,0,1,8.59-.86q13.74,0,22.54,8.8t8.8,22.55q0,10.73-5.8,17.81a48.5,48.5,0,0,1-14.38,11.81L90.48,349.79,146.73,382a47.48,47.48,0,0,1,14.17,11.59q5.58,6.87,5.58,17.61,0,13.74-9,22.54t-22.32,8.8a32.45,32.45,0,0,1-16.75-4.29L38.1,389.29A44.81,44.81,0,0,1,22.21,372.54Z"/><path class="cls-2" d="M378.15,447.66s-17.26,1.21-22.43,0c0,0,32.78-23,37.09-28.71s20.71-23,27.61-41.09,12.08-25.08,12.08-25.08H413.23l27.32-23.56s11.5-10.28,13.52-23.87,15.81-55,15.81-55l-13.23-3.62s20.13-29.92,21-62.85.86-39.88,0-52.27a192.66,192.66,0,0,1-.58-19.34l-17,11.18s2.8-11.78,3.66-19.49c2.06-18.42-.21-27.95-5.68-39.13S442.85,34,440.55,32.2c0,0-15.65,34.33-18.15,46.05-2.27,10.6-4.65,36.27-4.65,36.27l-7.4-21.89L406,115.14l-.34,1.74s-6.47,37.84-5.82,42.6-6.26-22.89-6.26-22.89-14.88,33.09-13.15,65.5c0,0-10.57-13.6-12.73-14.06S310.28,325.89,305.39,327.7c0,0,4.89-24.47,0-26.58,0,0-46.3,73.42-51.76,83.39s-21.57,44.42-23.58,53.18-6.62,19.34-4.32,28.7,9.2,35.66,9.2,35.66l-13.22-7.56s8,37.77,8.34,45.33,2,56.8,2,74,7.19,44.72,14.66,50.16c0,0-7.18-33.54-5.75-50.76s6.9-61,6.9-61,6-40.79,9.21-52,12.36-40.48,19.55-52,35.95-56.5,38.25-59.52,43.42-67.08,43.42-67.08,25.31-45.93,28.76-56.8,19-50.46,17.26-52.28c0,0,0,17.82-3.41,33.13-1,4.36-14.42,46.34-18.45,54.5s-18.12,35.65-22.43,42.6-48.6,71.31-48.6,71.31l-25.88,41.4s-15,34.74-16.39,46.53c0,0-9.49,39.28-9.21,44.11,0,0,7.77,2.72,12.94.91s12.08-3.93,13.81-5.44-11.22-11.48-10.07-12.39c0,0,22.43-1.81,32.79-10s33.07-19.64,50.9-45.63l17.83-26"/><path class="cls-2" d="M677.79,327.46a45.05,45.05,0,0,1,6,22.33,46.64,46.64,0,0,1-6,23.18,44.81,44.81,0,0,1-15.89,16.75l-80.72,48.94a22.72,22.72,0,0,1-7.73,3,43.83,43.83,0,0,1-8.59.86q-13.74,0-22.54-8.8t-8.8-22.55q0-10.73,5.8-17.81a48.5,48.5,0,0,1,14.38-11.81l55.82-31.35L553.27,318a47.48,47.48,0,0,1-14.17-11.59q-5.58-6.87-5.58-17.61,0-13.74,9-22.54t22.32-8.8a32.45,32.45,0,0,1,16.75,4.29l80.29,48.95A44.81,44.81,0,0,1,677.79,327.46Z"/></svg>