<svg id="Слой_1" data-name="Слой 1" xmlns="http://www.w3.org/2000/svg" viewBox="0 0 700 700"><defs><style>.cls-1{fill:#fff;}</style></defs><path class="cls-1" d="M660.55,175.67q-8.79-8.35-24.6-8.35-14,0-21.89,8.57t-10.61,23.47L578,328.33c-2.7,13.64-21.91,14.44-25.73,1.07L515.43,200.72q-5.86-19-14.67-26.18t-21.89-7.22q-14.44,0-23.7,7.44T441,199.82L405.28,327.56c-3.75,13.41-23,12.7-25.75-1L353.39,196.2q-5.42-28.87-31.15-28.88-15.8,0-24.82,8.8t-9,24.15a54.21,54.21,0,0,0,1.8,14l54.62,238.33q4.06,18.06,13.77,26.18t24.15,8.12q14,0,24.15-7t15.12-25l48.91-174.52a7.76,7.76,0,0,1,14.95,0l48.53,175q9,31.59,39.72,31.59,14.45,0,24.38-8.12t14.44-26.63l54.62-239.69a52.46,52.46,0,0,0,1.81-13.54Q669.36,184,660.55,175.67Z"/><path class="cls-1" d="M254.56,391.39v.05a21.78,21.78,0,0,0-5-6.78q-7.68-7-19.87-7-12.63,0-18.28,6.77a56.79,56.79,0,0,0-9.25,16.25q-5,15.79-15.57,24.38t-36.79,8.57q-27.54,0-41.75-20.31t-14.22-64.1V305q0-44.69,14.22-64.55t41.75-19.86q23.92,0,35.43,7.9t16.48,24.6q4.07,10.38,10.16,15.8t18.73,5.41q13.09,0,20.08-7.67t7-20.76a64.71,64.71,0,0,0-6.54-27.54A75.91,75.91,0,0,0,231.51,193q-13.09-11.28-33.63-18.5t-48.07-7.22q-26.17,0-48.07,7.9A94.79,94.79,0,0,0,64.05,200Q48.26,217,39.45,242.92T30.64,305v44.23q0,35.67,8.81,61.62t24.6,42.88a97,97,0,0,0,37.69,25q21.89,8.13,48.07,8.12,25.27,0,45.36-6.77a108.15,108.15,0,0,0,28.5-14.19c-3.06,7.95-5.42,15.27-6.39,21-4.51,26.72,20.63,49.19,44.32,45.37,18.93-3,32.82-20.63,32.22-40.44C293.32,475.39,254.56,391.39,254.56,391.39Z"/></svg>