<?xml version="1.0" encoding="utf-8"?>
<!-- Generator: Adobe Illustrator 24.3.0, SVG Export Plug-In . SVG Version: 6.00 Build 0)  -->
<svg version="1.1" id="Слой_1" xmlns="http://www.w3.org/2000/svg" xmlns:xlink="http://www.w3.org/1999/xlink" x="0px" y="0px"
	 viewBox="0 0 3119.2 700" style="enable-background:new 0 0 3119.2 700;" xml:space="preserve">
<style type="text/css">
	.st0{fill:#FFFFFF;}
	.st1{fill:#FFFFFF;stroke:#FFFFFF;stroke-width:15;stroke-miterlimit:10;}
</style>
<g>
	<g>
		<g>
			<path class="st0" d="M54.5,374.4c-4-7.2-6-14.6-6-22.3c0-8.3,2-16,6-23.2c4-7.2,9.3-12.7,15.9-16.7l80.7-48.9
				c2.3-1.4,4.9-2.4,7.7-3c2.9-0.6,5.7-0.9,8.6-0.9c9.2,0,16.7,2.9,22.5,8.8c5.9,5.9,8.8,13.4,8.8,22.5c0,7.2-1.9,13.1-5.8,17.8
				c-3.9,4.7-8.7,8.7-14.4,11.8l-55.8,31.3l56.2,32.2c5.7,3.1,10.4,7,14.2,11.6c3.7,4.6,5.6,10.4,5.6,17.6c0,9.2-3,16.7-9,22.5
				s-13.5,8.8-22.3,8.8c-6.3,0-11.9-1.4-16.7-4.3l-80.3-48.9C63.8,387.2,58.5,381.6,54.5,374.4z"/>
		</g>
		<g>
			<path class="st0" d="M410.5,449.6c0,0-17.3,1.2-22.4,0c0,0,32.8-23,37.1-28.7c4.3-5.7,20.7-23,27.6-41.1
				c6.9-18.1,12.1-25.1,12.1-25.1h-19.3l27.3-23.6c0,0,11.5-10.3,13.5-23.9s15.8-55,15.8-55l-13.2-3.6c0,0,20.1-29.9,21-62.8
				s0.9-39.9,0-52.3c-0.9-12.4-0.6-19.3-0.6-19.3l-17,11.2c0,0,2.8-11.8,3.7-19.5c2.1-18.4-0.2-27.9-5.7-39.1s-15.2-30.8-17.5-32.6
				c0,0-15.7,34.3-18.2,46.1c-2.3,10.6-4.6,36.3-4.6,36.3l-7.4-21.9l-4.4,22.5l-0.3,1.7c0,0-6.5,37.8-5.8,42.6
				c0.6,4.8-6.3-22.9-6.3-22.9S411,171.6,412.7,204c0,0-10.6-13.6-12.7-14.1c-2.2-0.5-57.4,137.9-62.3,139.7c0,0,4.9-24.5,0-26.6
				c0,0-46.3,73.4-51.8,83.4c-5.5,10-21.6,44.4-23.6,53.2c-2,8.8-6.6,19.3-4.3,28.7c2.3,9.4,9.2,35.7,9.2,35.7l-13.2-7.6
				c0,0,8.1,37.8,8.3,45.3c0.3,7.6,2,56.8,2,74s7.2,44.7,14.7,50.2c0,0-7.2-33.5-5.8-50.8c1.4-17.2,6.9-61,6.9-61s6-40.8,9.2-52
				c3.2-11.2,12.4-40.5,19.6-52s35.9-56.5,38.2-59.5c2.3-3,43.4-67.1,43.4-67.1s25.3-45.9,28.8-56.8c3.5-10.9,19-50.5,17.3-52.3
				c0,0,0,17.8-3.4,33.1c-1,4.4-14.4,46.3-18.5,54.5c-4,8.2-18.1,35.7-22.4,42.6S343.7,416,343.7,416l-25.9,41.4
				c0,0-15,34.7-16.4,46.5c0,0-9.5,39.3-9.2,44.1c0,0,7.8,2.7,12.9,0.9c5.2-1.8,12.1-3.9,13.8-5.4c1.7-1.5-11.2-11.5-10.1-12.4
				c0,0,22.4-1.8,32.8-10c10.4-8.2,33.1-19.6,50.9-45.6C410.5,449.6,410.5,449.6,410.5,449.6"/>
		</g>
		<g>
			<path class="st1" d="M313.3,641.3c8.8-6.3,17.5-12.7,26.3-19c4.4-3.2,8.8-6.3,13.1-9.5c3.9-2.8,7.8-6,12.2-8.1
				c3.3-1.6,7.2-2.3,10.7-0.8c3.3,1.4,4.6,4.3,4.3,7.7c-0.3,3.7-1.6,7.2-1.9,10.9c-0.3,3.9,1.2,7.7,4.6,9.8c8.7,5.4,18-3,24.7-7.9
				c4.4-3.2,8.8-6.3,13.2-9.5c4.2-3,8.3-6.3,12.7-9.1c3.2-2,7.8-4.5,11.5-2.5c3.2,1.6,4.8,5.6,7,8.3c2.7,3.3,6.6,5.1,10.9,4.9
				c4.5-0.2,8.7-2.1,12.6-4.1c9.4-5,18.7-10.4,28-15.7c9.4-5.3,18.9-10.6,28.3-15.9c2.3-1.3,21.8-12.2,24.5-13.7
				c29.7-15.9,27.1-16.9-2.3-2.2c-0.8,0.4-55.4,29.2-74.3,39.8c-4.1,2.3-8.1,4.9-12.6,6.3c-3.5,1.1-7.7,1.6-10.6-1.2
				c-2.7-2.6-4.1-6.2-6.9-8.8c-3.4-3.1-8-3.6-12.3-2.2c-4.6,1.5-8.5,4.6-12.4,7.4c-4.4,3.2-8.8,6.3-13.2,9.5
				c-4.3,3.1-8.6,6.3-13,9.4c-3.2,2.3-7.1,4.9-11.3,4.1c-1.6-0.3-3-1.1-3.9-2.4c-0.8-1.3-0.9-2.9-0.8-4.4c0.3-3.7,1.6-7.2,1.9-10.9
				c0.3-3.9-1.1-7.7-4.2-10.1c-3-2.4-7.1-3.3-10.9-2.8c-4.7,0.6-8.9,3.1-12.7,5.8c-4.3,3-8.6,6.2-12.8,9.3
				c-8.8,6.3-17.5,12.7-26.3,19c-2.2,1.6-4.3,3.1-6.5,4.7c-1,0.7-1.5,2-0.8,3.1C310.8,641.5,312.3,642,313.3,641.3L313.3,641.3z"/>
		</g>
		<g>
			<path class="st0" d="M710.1,329.4c4,7.2,6,14.6,6,22.3c0,8.3-2,16-6,23.2c-4,7.2-9.3,12.7-15.9,16.7l-80.7,48.9
				c-2.3,1.4-4.9,2.4-7.7,3c-2.9,0.6-5.7,0.9-8.6,0.9c-9.2,0-16.7-2.9-22.5-8.8c-5.9-5.9-8.8-13.4-8.8-22.5c0-7.2,1.9-13.1,5.8-17.8
				c3.9-4.7,8.7-8.7,14.4-11.8l55.8-31.3l-56.2-32.2c-5.7-3.1-10.4-7-14.2-11.6c-3.7-4.6-5.6-10.4-5.6-17.6c0-9.2,3-16.7,9-22.5
				c6-5.9,13.5-8.8,22.3-8.8c6.3,0,11.9,1.4,16.7,4.3l80.3,48.9C700.8,316.6,706.1,322.2,710.1,329.4z"/>
		</g>
	</g>
	<g>
		<path class="st0" d="M1145.7,399.9C1145.7,399.9,1145.7,399.9,1145.7,399.9c-1.5-3.1-3.4-5.8-5.8-8.1c-6-5.6-13.7-8.4-23.2-8.4
			c-9.8,0-16.9,2.7-21.3,8.2c-4.4,5.4-8,12-10.8,19.6c-3.9,12.7-9.9,22.5-18.2,29.4c-8.3,6.9-22.6,10.3-42.9,10.3
			c-21.4,0-37.7-8.2-48.7-24.5c-11.1-16.3-16.6-42-16.6-77.2v-53.3c0-35.9,5.5-61.8,16.6-77.7c11.1-15.9,27.3-23.9,48.7-23.9
			c18.6,0,32.4,3.2,41.4,9.5s15.4,16.2,19.2,29.6c3.2,8.3,7.1,14.7,11.9,19c4.7,4.4,12,6.5,21.9,6.5c10.2,0,18-3.1,23.4-9.2
			c5.4-6.2,8.2-14.5,8.2-25c0-10.9-2.5-21.9-7.6-33.2c-5.1-11.2-12.7-21.4-22.9-30.4c-10.2-9.1-23.3-16.5-39.3-22.3
			c-16-5.8-34.7-8.7-56.1-8.7c-20.4,0-39.1,3.2-56.1,9.5c-17,6.3-31.7,16.3-44,29.9C911,183,901.4,200.2,894.6,221
			c-6.8,20.8-10.3,45.8-10.3,74.8v53.3c0,28.6,3.4,53.4,10.3,74.2c6.9,20.8,16.4,38.1,28.7,51.7c12.3,13.6,27,23.7,44,30.2
			c17,6.5,35.7,9.8,56.1,9.8c19.7,0,37.3-2.7,53-8.2c12.7-4.4,23.8-10.1,33.3-17.1c-3.6,9.6-6.3,18.4-7.5,25.2
			c-5.3,32.2,24.1,59.2,51.7,54.6c22.1-3.7,38.3-24.8,37.6-48.7C1190.9,501,1145.7,399.9,1145.7,399.9z"/>
		<g>
			<path class="st0" d="M1360,433c-3.1,10.8-7.9,20-14.5,27.7c-6.6,7.7-15,13.7-25.2,17.9c-10.2,4.2-22.4,6.3-36.6,6.3
				c-14,0-26.1-2.1-36.3-6.3c-10.2-4.2-18.6-10.1-25.2-17.9c-6.6-7.7-11.5-17-14.7-27.7c-3.2-10.8-4.8-22.9-4.8-36.3v-22
				c0-29.1,7-51,21-65.5c14-14.6,34-21.8,60-21.8c26.3,0,46.3,7.3,60.2,21.8c13.9,14.6,20.8,36.4,20.8,65.5v22
				C1364.6,410.1,1363,422.2,1360,433z M1297.2,433.8c3.4-2.2,6.1-5.1,7.9-8.9c1.8-3.8,3-8.3,3.5-13.5c0.5-5.2,0.7-11,0.7-17.3
				v-16.7c0-14.2-1.8-24.8-5.3-31.7c-3.6-7-10.4-10.4-20.4-10.4s-16.9,3.5-20.4,10.4c-3.6,7-5.3,17.5-5.3,31.7v16.7
				c0,6.3,0.2,12.1,0.7,17.3c0.5,5.2,1.7,9.7,3.5,13.5c1.8,3.8,4.5,6.8,7.9,8.9c3.4,2.2,8,3.2,13.6,3.2S1293.8,435.9,1297.2,433.8z"
				/>
			<path class="st0" d="M1481.3,479.5c-6.9,3.5-14.5,5.3-22.8,5.3c-11.8,0-22.1-2.1-30.9-6.3c-8.8-4.2-16.3-10.1-22.5-17.7
				s-10.7-16.7-13.8-27.2c-3.1-10.5-4.6-22.1-4.6-34.8v-26.6c0-13.9,1.8-26.2,5.3-36.8c3.6-10.6,8.5-19.5,14.7-26.6
				c6.3-7.1,13.8-12.5,22.6-16.1c8.8-3.7,18.7-5.5,29.5-5.5c6.4,0,12.5,0.8,18.4,2.5c5.9,1.6,11.3,4.2,16.2,7.8v-54.7
				c0-8.4,2.4-15.1,7.2-20.1c4.8-5.1,11.6-7.6,20.4-7.6c8.3,0,15,2.4,20.1,7.2c5,4.8,7.5,11.3,7.5,19.4v216.5
				c0,8.1-2.4,14.6-7.2,19.4c-4.8,4.8-11.1,7.2-19,7.2c-8.3,0-14.4-2-18.2-5.9c-3.8-3.9-6.3-8.3-7.5-13.1l-0.4-1.5
				C1493.2,470.9,1488.2,476,1481.3,479.5z M1481.3,433.8c3.4-2.2,6.1-5.1,7.9-8.9c1.8-3.8,3-8.3,3.5-13.5c0.5-5.2,0.7-11,0.7-17.3
				v-20.9c0-12.9-2-22.5-5.9-28.7c-3.9-6.2-10.6-9.3-19.9-9.3c-10.1,0-16.9,3.5-20.4,10.4c-3.6,7-5.3,17.5-5.3,31.7v16.7
				c0,6.3,0.2,12.1,0.7,17.3c0.5,5.2,1.7,9.7,3.5,13.5c1.8,3.8,4.5,6.8,7.9,8.9c3.4,2.2,8,3.2,13.6,3.2S1477.8,435.9,1481.3,433.8z"
				/>
			<path class="st0" d="M1723.5,392.5c-4.9,5.3-11.7,8-20.2,8h-71.8v1.1c0.5,10.6,2.6,19.2,6.3,25.6c3.7,6.5,11,9.7,22.1,9.7
				c6.1,0,10.8-0.6,14-1.9s5.8-2.9,7.7-4.9c2.7-2.5,5.6-4.6,8.8-6.3c3.2-1.6,6.9-2.5,11-2.5c6.6,0,12.1,2.2,16.6,6.6
				c4.4,4.4,6.6,10.2,6.6,17.3c0,4.1-1,8.3-2.9,12.7c-2,4.4-5,8.4-9.2,12c-1.7,1.3-3.9,2.8-6.4,4.6c-2.6,1.8-6,3.4-10.1,4.9
				s-9.3,2.8-15.3,3.8c-6,1-13.1,1.5-21.2,1.5c-14.5,0-27-2.3-37.6-6.8s-19.2-10.7-26-18.4c-6.8-7.7-11.7-16.8-14.9-27.2
				s-4.8-21.5-4.8-33.4v-26.6c0-29.4,6.9-50.9,20.6-64.6s32.6-20.5,56.7-20.5c25.3,0,44.5,7,57.6,20.9
				c13.1,13.9,19.7,33.8,19.7,59.6v4.2C1730.9,380.4,1728.4,387.2,1723.5,392.5z M1638.3,342.2c-3.3,4.7-5.5,11.1-6.4,19.2v1.1h43.8
				V361c-0.7-9.9-2.9-16.7-6.6-20.3c-3.7-3.7-8.7-5.5-15.1-5.5C1646.8,335.2,1641.6,337.5,1638.3,342.2z"/>
		</g>
		<path class="st0" d="M2296.1,162.3c-7.3-6.9-17.4-10.3-30.5-10.3c-11.6,0-20.6,3.5-27.1,10.6s-10.9,16.8-13.1,29.1l-31.6,159.8
			c-3.3,16.9-27.1,17.9-31.9,1.3l-45.6-159.5c-4.8-15.7-10.9-26.5-18.2-32.4c-7.3-6-16.3-8.9-27.1-8.9c-11.9,0-21.7,3.1-29.4,9.2
			c-7.6,6.2-13.5,16.5-17.6,31l-44.2,158.3c-4.6,16.6-28.5,15.7-31.9-1.2l-32.4-161.6c-4.5-23.9-17.3-35.8-38.6-35.8
			c-13.1,0-23.3,3.6-30.8,10.9c-7.5,7.3-11.2,17.2-11.2,29.9c0,6,0.7,11.7,2.2,17.3l67.7,295.3c3.4,14.9,9,25.7,17.1,32.4
			c8,6.7,18,10.1,29.9,10.1c11.6,0,21.5-2.9,29.9-8.7c8.4-5.8,14.6-16.1,18.7-31l60.6-216.3c2.6-9.4,15.9-9.4,18.5,0l60.1,216.8
			c7.5,26.1,23.9,39.2,49.2,39.2c11.9,0,22-3.4,30.2-10.1c8.2-6.7,14.2-17.7,17.9-33l67.7-297c1.5-5.6,2.2-11.2,2.2-16.8
			C2307.1,178.8,2303.4,169.2,2296.1,162.3z"/>
		<g>
			<path class="st0" d="M2347.4,480.7c-5.3-5.3-8-12.3-8-20.9v-147c0-8.3,2.6-15,7.8-19.9c5.2-5,12.5-7.4,21.9-7.4
				c7.6,0,13.5,1.8,18,5.5c4.4,3.6,7.3,8.1,8.6,13.3l0.4,1.2c5-7,11-12.1,18.2-15.2c7.2-3.1,14.9-4.7,23.3-4.7
				c8.9,0,15.7,1.2,20.5,3.5c4.8,2.3,7.6,3.8,8.4,4.3c3.6,2.6,6.6,5.7,8.8,9.4s3.3,8.1,3.3,13.3c0,8.3-2.5,15-7.4,19.9
				c-5,5-11.6,7.4-19.9,7.4c-2.9,0-5.7-0.6-8.4-1.8c-2.7-1.2-5.5-2.4-8.4-3.7c-1.3-0.5-2.7-1-4.3-1.6c-1.6-0.5-3.4-0.8-5.5-0.8
				c-8.3,0-14.9,3-19.5,9c-4.7,6-7,15.6-7,28.9v86.4c0,8.6-2.7,15.6-8,20.9c-5.3,5.3-12.6,8-21.7,8
				C2359.7,488.7,2352.7,486.1,2347.4,480.7z"/>
			<path class="st0" d="M2514.8,219.9c5.7-5.7,13.3-8.6,22.7-8.6c9.4,0,16.9,2.9,22.7,8.6s8.6,13.3,8.6,22.7
				c0,9.4-2.9,16.9-8.6,22.7s-13.3,8.6-22.7,8.6c-9.4,0-16.9-2.9-22.7-8.6s-8.6-13.3-8.6-22.7
				C2506.2,233.1,2509.1,225.6,2514.8,219.9z M2516.2,293.5c5.3-5.3,12.6-8,21.7-8c8.6,0,15.6,2.7,20.9,8c5.3,5.3,8,12.3,8,20.9
				v145.4c0,8.6-2.7,15.6-8,20.9c-5.3,5.3-12.6,8-21.7,8c-8.6,0-15.6-2.7-20.9-8c-5.3-5.3-8-12.3-8-20.9V314.4
				C2508.2,305.8,2510.9,298.9,2516.2,293.5z"/>
			<path class="st0" d="M2596.7,296.3c4.3-4.6,10-6.8,17-6.8h5.5v-18c0-8.6,2.7-15.6,8-20.9c5.3-5.3,12.6-8,21.7-8
				c8.6,0,15.6,2.7,20.9,8c5.3,5.3,8,12.3,8,20.9v18h15.6c7,0,12.7,2.2,17,6.6c4.3,4.4,6.4,10.8,6.4,19.2c0,7-2.1,12.7-6.4,17
				c-4.3,4.3-10,6.4-17,6.4h-15.6v77c0,7,1,12.5,3.1,16.4c2.1,3.9,6,5.9,11.7,5.9h1.6c7.8,0,13.8,2.3,18,6.8
				c4.2,4.6,6.3,10.2,6.3,17c0,8.1-2.5,14.6-7.6,19.5c-5.1,5-14.3,7.4-27.6,7.4h-4.7c-8.6,0-16.5-0.8-23.8-2.5
				c-7.3-1.7-13.5-4.9-18.8-9.6c-5.2-4.7-9.3-11.3-12.3-19.9c-3-8.6-4.5-19.8-4.5-33.6v-84.4h-5.5c-7,0-12.7-2.1-17-6.4
				c-4.3-4.3-6.4-10.2-6.4-17.8C2590.3,306.9,2592.4,300.8,2596.7,296.3z"/>
			<path class="st0" d="M2890.8,393.8c-5.2,5.5-12.4,8.2-21.5,8.2h-76.2v1.2c0.5,10.9,2.7,19.7,6.6,26.4s11.7,10,23.5,10
				c6.5,0,11.5-0.7,14.9-2c3.4-1.3,6.1-3,8.2-5.1c2.9-2.6,6-4.8,9.4-6.4c3.4-1.7,7.3-2.5,11.7-2.5c7,0,12.9,2.3,17.6,6.8
				c4.7,4.6,7,10.5,7,17.8c0,4.2-1,8.5-3.1,13.1c-2.1,4.6-5.3,8.7-9.8,12.3c-1.8,1.3-4.1,2.9-6.8,4.7c-2.7,1.8-6.3,3.5-10.7,5.1
				c-4.4,1.6-9.8,2.9-16.2,3.9c-6.4,1-13.9,1.6-22.5,1.6c-15.4,0-28.7-2.3-39.9-7c-11.2-4.7-20.4-11-27.6-19
				c-7.2-7.9-12.4-17.3-15.8-27.9c-3.4-10.7-5.1-22.1-5.1-34.4v-27.4c0-30.2,7.3-52.4,21.9-66.4c14.6-14.1,34.7-21.1,60.2-21.1
				c26.8,0,47.2,7.2,61.2,21.5c13.9,14.3,20.9,34.8,20.9,61.4v4.3C2898.6,381.3,2896,388.3,2890.8,393.8z M2800.3,342
				c-3.5,4.8-5.8,11.4-6.8,19.7v1.2h46.5v-1.6c-0.8-10.2-3.1-17.1-7-20.9c-3.9-3.8-9.2-5.7-16-5.7
				C2809.4,334.8,2803.9,337.2,2800.3,342z"/>
			<path class="st0" d="M2939.6,480.7c-5.3-5.3-8-12.3-8-20.9v-147c0-8.3,2.6-15,7.8-19.9c5.2-5,12.5-7.4,21.9-7.4
				c7.6,0,13.5,1.8,18,5.5c4.4,3.6,7.3,8.1,8.6,13.3l0.4,1.2c5-7,11-12.1,18.2-15.2c7.2-3.1,14.9-4.7,23.3-4.7
				c8.9,0,15.7,1.2,20.5,3.5c4.8,2.3,7.6,3.8,8.4,4.3c3.6,2.6,6.6,5.7,8.8,9.4s3.3,8.1,3.3,13.3c0,8.3-2.5,15-7.4,19.9
				c-5,5-11.6,7.4-19.9,7.4c-2.9,0-5.7-0.6-8.4-1.8c-2.7-1.2-5.5-2.4-8.4-3.7c-1.3-0.5-2.7-1-4.3-1.6c-1.6-0.5-3.4-0.8-5.5-0.8
				c-8.3,0-14.9,3-19.5,9c-4.7,6-7,15.6-7,28.9v86.4c0,8.6-2.7,15.6-8,20.9c-5.3,5.3-12.6,8-21.7,8
				C2951.9,488.7,2944.9,486.1,2939.6,480.7z"/>
		</g>
	</g>
</g>
</svg>
