<?xml version="1.0" encoding="utf-8"?>
<!-- Generator: Adobe Illustrator 24.3.0, SVG Export Plug-In . SVG Version: 6.00 Build 0)  -->
<svg version="1.1" id="Слой_1" xmlns="http://www.w3.org/2000/svg" xmlns:xlink="http://www.w3.org/1999/xlink" x="0px" y="0px"
	 viewBox="0 0 405 305" style="enable-background:new 0 0 405 305;" xml:space="preserve">
<style type="text/css">
	.st0{fill:url(#SVGID_1_);}
	.st1{fill:url(#SVGID_2_);}
</style>
<linearGradient id="SVGID_1_" gradientUnits="userSpaceOnUse" x1="24.8156" y1="267.8102" x2="404.9756" y2="20.8502">
	<stop  offset="8.069964e-02" style="stop-color:#070A19"/>
	<stop  offset="0.3445" style="stop-color:#070C20"/>
	<stop  offset="0.7222" style="stop-color:#091133"/>
	<stop  offset="1" style="stop-color:#0A1645"/>
</linearGradient>
<rect x="-4.2" y="-8.1" class="st0" width="415.4" height="319.7"/>
<linearGradient id="SVGID_2_" gradientUnits="userSpaceOnUse" x1="63.743" y1="248.0091" x2="315.8132" y2="43.8867" gradientTransform="matrix(1 0 0 1 -1.751667e-02 1.235726e-02)">
	<stop  offset="0" style="stop-color:#00DCFE"/>
	<stop  offset="9.826970e-02" style="stop-color:#00D8FA"/>
	<stop  offset="0.1989" style="stop-color:#00CCEF"/>
	<stop  offset="0.3002" style="stop-color:#00B7DD"/>
	<stop  offset="0.3288" style="stop-color:#00B0D7"/>
	<stop  offset="0.3876" style="stop-color:#17A1D6"/>
	<stop  offset="0.5114" style="stop-color:#5479D3"/>
	<stop  offset="0.6624" style="stop-color:#A543D0"/>
	<stop  offset="0.6662" style="stop-color:#AA43D0"/>
	<stop  offset="0.7015" style="stop-color:#D343D0"/>
	<stop  offset="0.7294" style="stop-color:#EC43D0"/>
	<stop  offset="0.7462" style="stop-color:#F543D0"/>
</linearGradient>
<path class="st1" d="M48.7,61.1l1.7,4.4c0.1,0.1,0.2,0.2,0.3,0.3l4.2,1.5c0.2,0.1,0.2,0.5,0,0.6l-4.3,1.3c-0.1,0.1-0.2,0.2-0.3,0.3
	l-1.6,4.6c-0.1,0.2-0.5,0.2-0.6,0l-1.5-4.6c-0.1-0.1-0.2-0.2-0.3-0.3l-4.4-1.3c-0.2-0.1-0.2-0.5,0-0.6l4.5-1.4
	c0.1-0.1,0.2-0.2,0.3-0.3l1.4-4.5C48.2,60.9,48.6,60.9,48.7,61.1z M119.3,162.5l21.7,13.2c1.4,0.8,2.9,1.2,4.5,1.2
	c2.4,0,4.4-0.8,6-2.4c1.6-1.6,2.4-3.6,2.4-6.1c0-1.9-0.5-3.5-1.5-4.8c-1.1-1.3-2.4-2.3-3.8-3.1l-13.8-7.9c-0.6-0.4-0.6-1.2,0-1.6
	l13.7-7.7c1.5-0.8,2.8-1.9,3.9-3.2c1-1.3,1.6-2.9,1.6-4.8c0-2.5-0.8-4.5-2.4-6.1c-1.6-1.6-3.6-2.4-6.1-2.4c-0.8,0-1.6,0.1-2.3,0.2
	c-0.7,0.1-1.5,0.4-2.1,0.8l-21.9,13.2c-1.8,1.1-3.3,2.7-4.3,4.5c-1.1,1.9-1.6,4.1-1.6,6.3c0,2.1,0.6,4.2,1.6,6
	C116,159.8,117.5,161.4,119.3,162.5z M209.3,178.3l-4.8,7c-4.8,7-10.9,10.1-13.7,12.3c-2.8,2.2-8.8,2.7-8.8,2.7
	c-0.3,0.2,3.2,2.9,2.7,3.3c-0.5,0.4-2.3,1-3.7,1.5c-1.4,0.5-3.5-0.2-3.5-0.2c-0.1-1.3,2.5-11.9,2.5-11.9c0.4-3.2,4.4-12.6,4.4-12.6
	l6.9-11.2c0,0,11.9-17.4,13-19.3s4.9-9.3,6-11.5c1.1-2.2,4.7-13.6,5-14.7c0.9-4.1,0.9-9,0.9-9c0.5,0.5-3.7,11.2-4.6,14.1
	c-0.9,2.9-7.7,15.4-7.7,15.4s-11,17.3-11.7,18.1c-0.6,0.8-8.3,13-10.3,16.1s-4.4,11-5.2,14.1c-0.9,3-2.5,14.1-2.5,14.1
	s-1.5,11.8-1.9,16.5c-0.4,4.7,1.5,13.7,1.5,13.7c-2-1.5-3.9-8.9-3.9-13.6c0-4.6-0.4-18-0.5-20c-0.1-2-2.2-12.3-2.2-12.3l3.5,2
	c0,0-1.9-7.1-2.5-9.6s0.6-5.4,1.2-7.8s4.9-11.7,6.3-14.4s13.9-22.5,13.9-22.5c1.3,0.6,0,7.2,0,7.2c1.3-0.5,16.1-37.9,16.7-37.8
	s3.4,3.8,3.4,3.8c-0.5-8.8,3.5-17.7,3.5-17.7s1.9,7.5,1.7,6.2c-0.2-1.3,1.6-11.5,1.6-11.5l0.1-0.5l1.2-6.1l2,5.9
	c0,0,0.6-6.9,1.2-9.8C221.8,75.3,226,66,226,66c0.6,0.5,3.2,5.8,4.7,8.8c1.5,3,2.1,5.6,1.5,10.6c-0.2,2.1-1,5.3-1,5.3l4.6-3
	c0,1.7,0,3.5,0.2,5.2c0.2,3.3,0.2,5.2,0,14.1s-5.6,17-5.6,17l3.6,1c0,0-3.7,11.2-4.2,14.9c-0.5,3.7-3.6,6.5-3.6,6.5l-7.3,6.4h5.2
	c0,0-1.4,1.9-3.2,6.8c-1.9,4.9-6.3,9.6-7.4,11.1s-10,7.8-10,7.8C204.7,178.6,209.3,178.3,209.3,178.3 M286.3,141.3L264.4,128
	c-1.4-0.8-3-1.2-4.6-1.2c-2.4,0-4.5,0.8-6.1,2.4c-1.6,1.6-2.5,3.6-2.5,6.1c0,1.9,0.5,3.5,1.5,4.8c1.1,1.3,2.4,2.3,3.9,3.1l13.9,7.9
	c0.6,0.4,0.6,1.2,0,1.6l-13.8,7.7c-1.5,0.8-2.8,1.9-3.9,3.2c-1.1,1.3-1.6,2.9-1.6,4.8c0,2.5,0.8,4.5,2.4,6.1
	c1.6,1.6,3.7,2.4,6.2,2.4c0.8,0,1.6-0.1,2.3-0.2c0.7-0.1,1.5-0.4,2.1-0.8l22-13.2c1.8-1.1,3.3-2.7,4.3-4.5c1.1-1.9,1.7-4.1,1.6-6.3
	c0-2.1-0.6-4.2-1.6-6C289.6,143.9,288.1,142.4,286.3,141.3z M183,232.2C183,232.2,183,232.1,183,232.2c0.1-0.1,11-8.1,11-8.1
	l0.6-0.5c0.9-0.6,1.7-1.3,2.5-1.7c0.4-0.2,0.8-0.3,1.2-0.3c0.2,0,0.4,0,0.6,0.1c0.2,0.1,0.5,0.2,0.4,0.9c0,0.4-0.1,0.9-0.2,1.3
	c-0.1,0.5-0.2,1.1-0.3,1.7c-0.1,1.7,0.6,3.1,1.9,3.9c0.7,0.5,1.5,0.7,2.3,0.7c2.1,0,3.9-1.4,5.3-2.5c0.2-0.2,0.4-0.3,0.6-0.4
	l3.6-2.7c0.4-0.3,0.8-0.6,1.1-0.9c0.7-0.6,1.5-1.1,2.3-1.6c0.3-0.2,1.1-0.7,1.6-0.7c0.1,0,0.2,0,0.2,0c0.3,0.2,0.6,0.6,0.9,1.1
	c0.2,0.3,0.4,0.6,0.6,0.9c0.9,1.2,2.3,1.9,3.8,1.9c0.1,0,0.2,0,0.3,0c1.6-0.1,3-0.7,4-1.3c1.8-1,3.5-2,5.2-3c0.8-0.5,1.7-1,2.5-1.4
	l9-5.2c1.8-1,4.9-2.8,5.5-3.1c6.8-3.7,6.7-3.9,6.4-5c-0.1-0.6-0.7-1-1.3-1c-0.3,0-0.9,0-7,3.1c-0.1,0-15.2,8.2-20.5,11.2l-0.6,0.4
	c-0.9,0.5-1.7,1-2.6,1.3c-0.4,0.1-0.7,0.2-1,0.2c-0.4,0-0.5-0.1-0.6-0.2c-0.3-0.2-0.5-0.6-0.7-1c-0.3-0.5-0.7-1-1.2-1.5
	c-0.8-0.8-1.9-1.2-3-1.2c-0.6,0-1.1,0.1-1.7,0.3c-1.3,0.5-2.4,1.3-3.5,2l-4.8,3.5c-0.9,0.7-1.8,1.3-2.7,2c-0.5,0.4-1.3,0.9-1.9,0.9
	c-0.1,0-0.1,0-0.2,0c-0.1,0-0.1,0-0.2-0.1c0-0.1-0.1-0.3,0-0.5c0-0.4,0.1-0.9,0.2-1.3c0.1-0.5,0.2-1.1,0.3-1.7c0.2-1.5-0.4-3-1.7-4
	c-0.9-0.7-2.1-1.1-3.2-1.1c-0.2,0-0.5,0-0.7,0.1c-1.6,0.2-3,1.1-4.1,1.8c-0.8,0.6-1.6,1.2-2.5,1.8l-1.1,0.8l-8.9,6.6
	c-0.8,0.5-1.1,1.7-0.6,2.6c0.3,0.6,1,1,1.7,1C182.4,232.4,182.7,232.3,183,232.2z M163.9,72.6l-2.2,7c-0.1,0.2-0.3,0.3-0.5,0.5
	l-7,2.2c-0.4,0.2-0.4,0.7,0,1l6.8,2.1c0.2,0.1,0.3,0.3,0.5,0.5l2.3,7.1c0.2,0.4,0.7,0.4,1,0l2.4-7.1c0.1-0.2,0.3-0.3,0.5-0.5l6.7-2
	c0.4-0.2,0.4-0.7,0-1l-6.6-2.3c-0.2-0.1-0.3-0.3-0.5-0.5l-2.6-6.9C164.7,72.2,164.1,72.2,163.9,72.6z M114.2,175.1l-1.3,4.3
	c-0.1,0.1-0.2,0.2-0.3,0.3l-4.2,1.3c-0.2,0.1-0.2,0.5,0,0.6l4.1,1.3c0.1,0.1,0.2,0.2,0.3,0.3l1.4,4.3c0.1,0.2,0.5,0.2,0.6,0l1.5-4.3
	c0.1-0.1,0.2-0.2,0.3-0.3l4.1-1.2c0.2-0.1,0.2-0.5,0-0.6l-4-1.4c-0.1-0.1-0.2-0.2-0.3-0.3l-1.6-4.2
	C114.6,174.9,114.3,174.9,114.2,175.1z M72.2,159.5l-1.4,4.5c-0.1,0.1-0.2,0.2-0.3,0.3l-4.5,1.4c-0.2,0.1-0.2,0.5,0,0.6l4.4,1.3
	c0.1,0.1,0.2,0.2,0.3,0.3l1.5,4.6c0.1,0.2,0.5,0.2,0.6,0l1.6-4.6c0.1-0.1,0.2-0.2,0.3-0.3l4.3-1.3c0.2-0.1,0.2-0.5,0-0.6l-4.2-1.5
	c-0.1-0.1-0.2-0.2-0.3-0.3l-1.7-4.4C72.6,159.3,72.3,159.3,72.2,159.5z M40.7,119l-1.6,5c-0.1,0.1-0.2,0.2-0.3,0.3l-5,1.5
	c-0.3,0.1-0.3,0.5,0,0.7l4.9,1.5c0.1,0.1,0.2,0.2,0.3,0.3l1.7,5.1c0.1,0.3,0.5,0.3,0.7,0l1.7-5.1c0.1-0.1,0.2-0.2,0.3-0.3l4.8-1.4
	c0.3-0.1,0.3-0.5,0-0.7l-4.7-1.6c-0.1-0.1-0.2-0.2-0.3-0.3l-1.8-4.9C41.2,118.7,40.8,118.7,40.7,119z M126.2,52.8l-1.4,4.5
	c-0.1,0.1-0.2,0.2-0.3,0.3L120,59c-0.2,0.1-0.2,0.5,0,0.6l4.4,1.3c0.1,0.1,0.2,0.2,0.3,0.3l1.5,4.6c0.1,0.2,0.5,0.2,0.6,0l1.6-4.6
	c0.1-0.1,0.2-0.2,0.3-0.3l4.3-1.3c0.2-0.1,0.2-0.5,0-0.6l-4.2-1.5c-0.1-0.1-0.2-0.2-0.3-0.3l-1.7-4.4
	C126.7,52.6,126.4,52.6,126.2,52.8z M90.8,90.1l-1.4,4.5c-0.1,0.1-0.2,0.2-0.3,0.3l-4.5,1.4c-0.2,0.1-0.2,0.5,0,0.6l4.4,1.3
	c0.1,0.1,0.2,0.2,0.3,0.3l1.5,4.6c0.1,0.2,0.5,0.2,0.6,0l1.6-4.6c0.1-0.1,0.2-0.2,0.3-0.3l4.3-1.3c0.2-0.1,0.2-0.5,0-0.6l-4.2-1.5
	c-0.1-0.1-0.2-0.2-0.3-0.3l-1.7-4.4C91.3,89.9,91,89.9,90.8,90.1z M259.6,41.5l-2.4,7.8c-0.1,0.2-0.3,0.4-0.5,0.5l-7.8,2.4
	c-0.4,0.2-0.4,0.8,0,1.1l7.6,2.3c0.2,0.1,0.4,0.3,0.5,0.5l2.6,8c0.2,0.4,0.8,0.4,1.1,0l2.7-8c0.1-0.2,0.3-0.4,0.5-0.5l7.5-2.3
	c0.4-0.2,0.4-0.8,0-1.1l-7.4-2.5c-0.2-0.1-0.4-0.3-0.5-0.5l-2.9-7.7C260.5,41.1,259.9,41.1,259.6,41.5z M316,63.9l-1.8,5.8
	c-0.1,0.2-0.2,0.3-0.4,0.4l-5.8,1.8c-0.3,0.2-0.3,0.6,0,0.8l5.6,1.7c0.2,0.1,0.3,0.2,0.4,0.4l1.9,5.9c0.2,0.3,0.6,0.3,0.8,0l2-5.9
	c0.1-0.2,0.2-0.3,0.4-0.4l5.6-1.7c0.3-0.2,0.3-0.6,0-0.8l-5.4-1.9c-0.2-0.1-0.3-0.2-0.4-0.4l-2.1-5.7
	C316.7,63.6,316.2,63.6,316,63.9z M259.2,95.4l-1.7,5.4c-0.1,0.1-0.2,0.3-0.3,0.3l-5.3,1.7c-0.3,0.2-0.3,0.6,0,0.7l5.2,1.6
	c0.1,0.1,0.3,0.2,0.3,0.3l1.8,5.4c0.2,0.3,0.6,0.3,0.7,0l1.9-5.5c0.1-0.1,0.2-0.3,0.3-0.3l5.1-1.6c0.3-0.2,0.3-0.6,0-0.7l-5-1.7
	c-0.1-0.1-0.3-0.2-0.3-0.3l-2-5.3C259.8,95.2,259.4,95.2,259.2,95.4z M364.7,106.4l-1.3,4.3c-0.1,0.1-0.2,0.2-0.3,0.3l-4.3,1.3
	c-0.2,0.1-0.2,0.5,0,0.6l4.2,1.3c0.1,0.1,0.2,0.2,0.3,0.3l1.4,4.4c0.1,0.2,0.5,0.2,0.6,0l1.5-4.4c0.1-0.1,0.2-0.2,0.3-0.3l4.1-1.2
	c0.2-0.1,0.2-0.5,0-0.6l-4-1.4c-0.1-0.1-0.2-0.2-0.3-0.3l-1.6-4.2C365.1,106.2,364.8,106.2,364.7,106.4z M324.7,147.8l-1.3,4.3
	c-0.1,0.1-0.2,0.2-0.3,0.3l-4.3,1.3c-0.2,0.1-0.2,0.5,0,0.6l4.2,1.3c0.1,0.1,0.2,0.2,0.3,0.3l1.4,4.4c0.1,0.2,0.5,0.2,0.6,0l1.5-4.4
	c0.1-0.1,0.2-0.2,0.3-0.3l4.1-1.2c0.2-0.1,0.2-0.5,0-0.6l-4-1.4c-0.1-0.1-0.2-0.2-0.3-0.3l-1.6-4.2
	C325.2,147.6,324.8,147.6,324.7,147.8z M277.3,197.2l-1.5,4.9c-0.1,0.1-0.2,0.2-0.3,0.3l-4.9,1.5c-0.3,0.1-0.3,0.5,0,0.7l4.8,1.5
	c0.1,0.1,0.2,0.2,0.3,0.3l1.6,5c0.1,0.3,0.5,0.3,0.7,0l1.7-5c0.1-0.1,0.2-0.2,0.3-0.3l4.8-1.4c0.3-0.1,0.3-0.5,0-0.7l-4.7-1.6
	c-0.1-0.1-0.2-0.2-0.3-0.3l-1.8-4.9C277.9,197,277.5,197,277.3,197.2z M243.2,249.4l-1.5,4.9c-0.1,0.1-0.2,0.2-0.3,0.3l-4.9,1.5
	c-0.3,0.1-0.3,0.5,0,0.7l4.8,1.5c0.1,0.1,0.2,0.2,0.3,0.3l1.6,5c0.1,0.3,0.5,0.3,0.7,0l1.7-5c0.1-0.1,0.2-0.2,0.3-0.3l4.8-1.4
	c0.3-0.1,0.3-0.5,0-0.7l-4.7-1.6c-0.1-0.1-0.2-0.2-0.3-0.3l-1.8-4.9C243.7,249.1,243.3,249.1,243.2,249.4z M303.4,235.8l-1.8,5.9
	c-0.1,0.2-0.2,0.3-0.4,0.4l-5.9,1.8c-0.3,0.2-0.3,0.6,0,0.8l5.7,1.7c0.2,0.1,0.3,0.2,0.4,0.4l2,6c0.2,0.3,0.6,0.3,0.8,0l2-6
	c0.1-0.2,0.2-0.3,0.4-0.4l5.6-1.7c0.3-0.2,0.3-0.6,0-0.8l-5.5-1.9c-0.2-0.1-0.3-0.2-0.4-0.4l-2.2-5.8
	C304,235.5,303.6,235.5,303.4,235.8z M107.1,217.5l-2,6.6c-0.1,0.2-0.2,0.3-0.4,0.4l-6.5,2c-0.4,0.2-0.4,0.7,0,0.9l6.4,1.9
	c0.2,0.1,0.3,0.2,0.4,0.4l2.2,6.7c0.2,0.4,0.7,0.4,0.9,0l2.3-6.7c0.1-0.2,0.2-0.3,0.4-0.4l6.3-1.9c0.4-0.2,0.4-0.7,0-0.9l-6.2-2.1
	c-0.2-0.1-0.3-0.2-0.4-0.4l-2.4-6.5C107.8,217.2,107.3,217.2,107.1,217.5z M65.1,233.6l-1.6,5c-0.1,0.1-0.2,0.2-0.3,0.3l-5,1.5
	c-0.3,0.1-0.3,0.5,0,0.7l4.9,1.5c0.1,0.1,0.2,0.2,0.3,0.3l1.7,5.1c0.1,0.3,0.5,0.3,0.7,0l1.7-5.1c0.1-0.1,0.2-0.2,0.3-0.3l4.8-1.4
	c0.3-0.1,0.3-0.5,0-0.7l-4.7-1.6c-0.1-0.1-0.2-0.2-0.3-0.3l-1.8-4.9C65.6,233.4,65.2,233.4,65.1,233.6z"/>
</svg>
