<svg id="Слой_1" data-name="Слой 1" xmlns="http://www.w3.org/2000/svg" xmlns:xlink="http://www.w3.org/1999/xlink" viewBox="0 0 100 100"><defs><style>.cls-1{fill:url(#Безымянный_градиент_143);}</style><linearGradient id="Безымянный_градиент_143" x1="20.16" y1="80.01" x2="83.72" y2="28.54" gradientUnits="userSpaceOnUse"><stop offset="0" stop-color="#00dcfe"/><stop offset="0.1" stop-color="#00d8fa"/><stop offset="0.2" stop-color="#00ccef"/><stop offset="0.3" stop-color="#00b7dd"/><stop offset="0.33" stop-color="#00b0d7"/><stop offset="0.39" stop-color="#17a1d6"/><stop offset="0.51" stop-color="#5479d3"/><stop offset="0.66" stop-color="#a543d0"/><stop offset="0.67" stop-color="#aa43d0"/><stop offset="0.7" stop-color="#d343d0"/><stop offset="0.73" stop-color="#ec43d0"/><stop offset="0.75" stop-color="#f543d0"/></linearGradient></defs><path class="cls-1" d="M3.89,56.15l12,7.3a4.79,4.79,0,0,0,2.51.64,4.61,4.61,0,0,0,3.33-1.31,4.5,4.5,0,0,0,1.35-3.36,4,4,0,0,0-.84-2.63,7,7,0,0,0-2.12-1.73L12.49,50.7a.5.5,0,0,1,0-.88l7.56-4.24a7.45,7.45,0,0,0,2.15-1.76,4.05,4.05,0,0,0,.87-2.66,4.5,4.5,0,0,0-4.69-4.68,6.11,6.11,0,0,0-1.28.13,3.5,3.5,0,0,0-1.16.45L3.89,44.36a6.69,6.69,0,0,0-2.37,2.5,6.87,6.87,0,0,0-.9,3.46,6.63,6.63,0,0,0,.9,3.33A6.77,6.77,0,0,0,3.89,56.15Zm49.66,8.69-2.64,3.88c-2.64,3.88-6,5.59-7.54,6.81S38.51,77,38.51,77c-.17.14,1.75,1.63,1.49,1.85a10.37,10.37,0,0,1-2,.81A3.58,3.58,0,0,1,36,79.55c0-.72,1.37-6.58,1.37-6.58.2-1.76,2.42-7,2.42-7l3.84-6.17s6.56-9.61,7.2-10.64,2.73-5.14,3.32-6.36,2.59-7.48,2.74-8.13a27.13,27.13,0,0,0,.5-4.95c.26.28-2,6.18-2.56,7.81s-4.26,8.47-4.26,8.47-6.09,9.56-6.43,10-4.6,7.16-5.67,8.88a42.76,42.76,0,0,0-2.89,7.76c-.48,1.67-1.37,7.76-1.37,7.76s-.81,6.53-1,9.1a36.72,36.72,0,0,0,.85,7.57c-1.11-.81-2.17-4.91-2.17-7.48s-.25-9.91-.3-11-1.23-6.77-1.23-6.77L32.33,73s-1-3.92-1.36-5.32.34-3,.64-4.28a63.7,63.7,0,0,1,3.5-7.94C35.91,54,42.77,43,42.77,43c.73.32,0,4,0,4,.73-.27,8.92-20.91,9.24-20.84a13.78,13.78,0,0,1,1.88,2.1,24.63,24.63,0,0,1,2-9.78s1,4.13.93,3.42.86-6.36.86-6.36l0-.26.65-3.36,1.09,3.27s.36-3.83.69-5.41A59.89,59.89,0,0,1,62.8,2.87a41.41,41.41,0,0,1,2.6,4.87,9.35,9.35,0,0,1,.84,5.83c-.13,1.15-.55,2.91-.55,2.91l2.52-1.67a27.81,27.81,0,0,0,.09,2.89,71.31,71.31,0,0,1,0,7.8,20.32,20.32,0,0,1-3.11,9.38l2,.54a85.27,85.27,0,0,0-2.34,8.2,6.8,6.8,0,0,1-2,3.56l-4,3.52h2.86a17.1,17.1,0,0,0-1.79,3.74c-1,2.7-3.45,5.28-4.09,6.13a58,58,0,0,1-5.5,4.29,20,20,0,0,0,3.33,0M96.08,44.42,84,37.12a5,5,0,0,0-2.52-.64,4.69,4.69,0,0,0-3.37,1.31,4.51,4.51,0,0,0-1.35,3.37,4,4,0,0,0,.84,2.62,7,7,0,0,0,2.13,1.73l7.7,4.37a.51.51,0,0,1,0,.88L79.77,55a7.25,7.25,0,0,0-2.17,1.76,4,4,0,0,0-.87,2.66,4.54,4.54,0,0,0,1.32,3.36,4.62,4.62,0,0,0,3.4,1.31,7.07,7.07,0,0,0,1.3-.12,3.5,3.5,0,0,0,1.16-.45l12.17-7.3a6.82,6.82,0,0,0,2.39-2.5,6.91,6.91,0,0,0,.91-3.46,6.61,6.61,0,0,0-.91-3.33A6.77,6.77,0,0,0,96.08,44.42ZM39,94.59l0,0,6-4.44.35-.26a9.36,9.36,0,0,1,1.39-.93,1.62,1.62,0,0,1,.67-.17.9.9,0,0,1,.34.06c.1.05.26.12.24.49a5.5,5.5,0,0,1-.13.74,5.54,5.54,0,0,0-.16,1,2.3,2.3,0,0,0,1,2.17,2.42,2.42,0,0,0,1.29.38,5.24,5.24,0,0,0,3-1.38l.32-.25,2-1.47L56,90c.41-.31.84-.64,1.26-.91a2.3,2.3,0,0,1,.91-.39.27.27,0,0,1,.13,0,1.79,1.79,0,0,1,.48.59c.11.18.23.35.34.5a2.67,2.67,0,0,0,2.11,1h.14a5.34,5.34,0,0,0,2.22-.73c1-.52,1.94-1.09,2.88-1.63l1.38-.8,5-2.85c1-.57,2.72-1.56,3-1.72,3.73-2,3.7-2.17,3.55-2.75a.76.76,0,0,0-.73-.55c-.18,0-.52,0-3.84,1.69,0,0-8.41,4.54-11.29,6.19l-.35.2a7,7,0,0,1-1.43.71,1.67,1.67,0,0,1-.53.11.49.49,0,0,1-.36-.12,3.74,3.74,0,0,1-.41-.55,4.17,4.17,0,0,0-.64-.82,2.43,2.43,0,0,0-1.67-.65,2.74,2.74,0,0,0-.92.16,6.76,6.76,0,0,0-1.9,1.12l-2.65,2c-.49.37-1,.74-1.49,1.1a2.31,2.31,0,0,1-1.05.52l-.14,0a.12.12,0,0,1-.08,0,.43.43,0,0,1,0-.26,5.14,5.14,0,0,1,.12-.72,6,6,0,0,0,.16-.93,2.53,2.53,0,0,0-.91-2.23,3,3,0,0,0-1.78-.6,2.69,2.69,0,0,0-.4,0,5.13,5.13,0,0,0-2.25,1l-1.36,1-.6.45L38,92.75a1.11,1.11,0,0,0-.35,1.45,1.07,1.07,0,0,0,.92.52A1,1,0,0,0,39,94.59Z"/></svg>