<svg id="Слой_1" data-name="Слой 1" xmlns="http://www.w3.org/2000/svg" xmlns:xlink="http://www.w3.org/1999/xlink" viewBox="0 0 2429.08 700"><defs><style>.cls-1{fill:url(#Безымянный_градиент_143);}</style><linearGradient id="Безымянный_градиент_143" x1="490.26" y1="962.37" x2="1932.99" y2="-205.93" gradientUnits="userSpaceOnUse"><stop offset="0" stop-color="#00dcfe"/><stop offset="0.1" stop-color="#00d8fa"/><stop offset="0.2" stop-color="#00ccef"/><stop offset="0.3" stop-color="#00b7dd"/><stop offset="0.33" stop-color="#00b0d7"/><stop offset="0.39" stop-color="#17a1d6"/><stop offset="0.51" stop-color="#5479d3"/><stop offset="0.66" stop-color="#a543d0"/><stop offset="0.67" stop-color="#aa43d0"/><stop offset="0.7" stop-color="#d343d0"/><stop offset="0.73" stop-color="#ec43d0"/><stop offset="0.75" stop-color="#f543d0"/></linearGradient></defs><path class="cls-1" d="M658.66,235.92A48.87,48.87,0,0,1,657,248.54l-50.9,223.37q-4.2,17.23-13.46,24.81t-22.71,7.58q-28.6,0-37-29.45l-45.23-163a7.23,7.23,0,0,0-13.93,0L428.15,474.43q-4.63,16.83-14.09,23.35t-22.51,6.52q-13.46,0-22.5-7.58t-12.83-24.39l-50.9-222.11a50.41,50.41,0,0,1-1.68-13q0-14.3,8.41-22.5t23.13-8.2q24,0,29,26.92l24.36,121.51c2.55,12.73,20.5,13.4,24,.9l33.25-119q4.62-16.39,13.25-23.34t22.08-6.94q12.19,0,20.4,6.73t13.67,24.39l34.31,119.93c3.56,12.46,21.47,11.71,24-1l23.74-120.18q2.52-13.87,9.88-21.87t20.41-8q14.72,0,22.92,7.78T658.66,235.92ZM272.11,415.3v0a20.37,20.37,0,0,0-4.64-6.32q-7.15-6.52-18.51-6.52-11.77,0-17,6.31A52.82,52.82,0,0,0,223.29,424q-4.64,14.73-14.51,22.72t-34.29,8q-25.65,0-38.91-18.93T122.33,376V334.77q0-41.64,13.25-60.15t38.91-18.51q22.31,0,33,7.36t15.35,22.93q3.78,9.68,9.46,14.72t17.46,5.05q12.2,0,18.72-7.15T275,279.67a60.2,60.2,0,0,0-6.1-25.66,70.75,70.75,0,0,0-18.3-23.56q-12.19-10.51-31.34-17.24t-44.8-6.73a131,131,0,0,0-44.79,7.36A88.38,88.38,0,0,0,94.57,237q-14.71,15.78-22.92,40t-8.21,57.84V376q0,33.22,8.21,57.42t22.92,40a90.37,90.37,0,0,0,35.13,23.34,127.75,127.75,0,0,0,44.79,7.58q23.56,0,42.28-6.31a101.45,101.45,0,0,0,26.56-13.23c-2.86,7.41-5.06,14.23-6,19.54-4.21,24.89,19.23,45.83,41.3,42.27,17.64-2.85,30.58-19.22,30-37.69C308.23,493.58,272.11,415.3,272.11,415.3ZM992.06,300.88q0-47.11-29.5-70.47t-80-23.34h-76q-13.17,0-21,7.85t-7.86,21v239q0,13.15,8.07,21t22.49,7.86q13.17,0,21-7.86t7.85-21v-78.1h45.42q51.36,0,80.44-24.62T992.06,300.88Zm-118,45.84H837.13V257.58h36.93q31,0,44.78,11t13.8,32.26q0,23.76-13.8,34.8T874.06,346.72Zm174,157.06q12.32,0,19.74-7.22t7.43-19.52V375.16q0-22.5,9.33-33.53t24.62-11a25.48,25.48,0,0,1,10.19,1.7,37.53,37.53,0,0,1,7.22,4.24q4.25,2.13,8.27,4a20.14,20.14,0,0,0,8.71,1.91q11.46,0,18.46-7t7-18.89a22.76,22.76,0,0,0-3.4-12.52,38.49,38.49,0,0,0-8.06-9.13q-4.26-3.81-13.38-7.42t-24-3.61q-31.83,0-46.27,22.49l-.42-3.39a22.07,22.07,0,0,0-7.64-13.58q-6.37-5.52-17.41-5.52-12.73,0-20.16,7t-7.43,18.47V477q0,12.3,7.43,19.52T1048.09,503.78Zm314.53-123.53v-4.67q0-44.15-21.86-67.91t-65.58-23.77q-41.6,0-64.52,23.34T1187.74,379v28.87a122.17,122.17,0,0,0,5.73,38,83.69,83.69,0,0,0,17.4,30.56,78.81,78.81,0,0,0,29.5,20.16q17.84,7.21,41.6,7.22,27.16,0,41.6-6.16t21.65-13.37a30.37,30.37,0,0,0,8.28-10.82,29.46,29.46,0,0,0,2.76-12.1q0-10.62-6.58-17T1332.91,438a23.92,23.92,0,0,0-11.25,2.55,35.46,35.46,0,0,0-8.7,6.37,34.4,34.4,0,0,1-11,7.85q-6.8,3.18-20.37,3.18-22.08,0-30.57-13.58T1242.07,410v-2.55h93.81q12.31,0,19.53-7.64T1362.62,380.25Zm-87-50.51q14.87,0,23.35,8.91t9.76,28.87v1.27h-66.64v-1.27q2.13-17.83,9.76-27.8T1275.6,329.74Zm126.07-19.95V477q0,12.3,7.43,19.52t19.74,7.22q12.3,0,19.73-7.22T1456,477V375.16q0-22.92,9.34-33.75t24.2-10.82q14.43,0,23.34,9.76t8.92,35.23V477q0,12.3,7.21,19.52t19.53,7.22q12.3,0,19.74-7.22T1575.7,477V372.19q0-21.22,9.34-31.41t23.77-10.19q16.14,0,24.41,10.4t8.28,34.59V477q0,12.3,7.43,19.52t19.73,7.22q12.31,0,19.74-7.22t7.43-19.52V367.1q0-41.61-19.31-62.4t-54.12-20.8q-20.39,0-35.66,8.06a79.89,79.89,0,0,0-25.47,20.8q-19.1-28.86-54.76-28.86-17.82,0-30.35,5.52t-21.86,18.67l-.42-3.82a21.82,21.82,0,0,0-7.43-14.43q-6.59-5.94-18-5.94-12.3,0-19.53,7T1401.67,309.79Zm343.4.85V477q0,12.3,7.21,19.52t19.53,7.22q12.3,0,19.74-7.22T1799,477V310.64q0-12.31-7.22-19.53t-19.53-7.21q-12.3,0-19.74,7.21T1745.07,310.64Zm180.39,193.14q17.83,0,30.14-5.1t20.38-17.4v3.4a24.64,24.64,0,0,0,7.85,13.58q6.15,5.52,17.19,5.52,12.32,0,19.74-7.22t7.43-19.1V310.64q0-12.31-7.43-19.53T2001,283.9q-12.32,0-19.74,7.21t-7.43,19.53V412.51q0,44.58-36.93,44.57-17,0-25.68-10t-8.7-35V310.64q0-12.31-7.21-19.53t-19.53-7.21q-12.32,0-20,7.21t-7.64,19.53V420.15q0,23.36,6.15,39.27t16.56,25.89a59.78,59.78,0,0,0,24.41,14.22A103.35,103.35,0,0,0,1925.46,503.78Zm146-194V477q0,12.3,7.42,19.52t19.74,7.22q12.32,0,19.74-7.22t7.43-19.52V375.16q0-22.92,9.34-33.75t24.19-10.82q14.43,0,23.35,9.76t8.91,35.23V477q0,12.3,7.22,19.52t19.52,7.22q12.32,0,19.74-7.22t7.43-19.52V372.19q0-21.22,9.34-31.41t23.77-10.19q16.13,0,24.41,10.4t8.27,34.59V477q0,12.3,7.43,19.52t19.74,7.22q12.32,0,19.74-7.22t7.43-19.52V367.1q0-41.61-19.32-62.4t-54.12-20.8q-20.37,0-35.65,8.06a79.89,79.89,0,0,0-25.47,20.8Q2212,283.9,2176.32,283.9q-17.82,0-30.35,5.52t-21.86,18.67l-.42-3.82a21.86,21.86,0,0,0-7.43-14.43q-6.59-5.94-18-5.94-12.31,0-19.53,7T2071.48,309.79Zm-302-155.25-11.66,37.37a6,6,0,0,1-2.41,2.41l-37.17,11.56a2.9,2.9,0,0,0,0,5.09l36.42,11a6.12,6.12,0,0,1,2.42,2.42l12.4,37.9a2.89,2.89,0,0,0,5.08,0l13-38.09a6.12,6.12,0,0,1,2.42-2.42L1825.8,211a2.9,2.9,0,0,0,0-5.09l-35.1-12.11a6,6,0,0,1-2.41-2.41l-13.73-36.82A2.89,2.89,0,0,0,1769.48,154.54Z"/></svg>